<svg id="outline-calendar_today-24px_1_" data-name="outline-calendar_today-24px (1)" xmlns="http://www.w3.org/2000/svg" width="17.342" height="17.342" viewBox="0 0 17.342 17.342">
  <path id="Path_35" data-name="Path 35" d="M0,0H17.342V17.342H0Z" fill="none"/>
  <path id="Path_36" data-name="Path 36" d="M15.007,2.445h-.723V1H12.839V2.445H5.613V1H4.168V2.445H3.445A1.449,1.449,0,0,0,2,3.89V15.452A1.449,1.449,0,0,0,3.445,16.9H15.007a1.449,1.449,0,0,0,1.445-1.445V3.89A1.449,1.449,0,0,0,15.007,2.445Zm0,13.007H3.445V7.5H15.007Zm0-9.394H3.445V3.89H15.007Z" transform="translate(-0.555 -0.277)" fill="#fff"/>
</svg>
