<?xml version="1.0" encoding="utf-8"?>
<!-- Generator: Adobe Illustrator 19.0.0, SVG Export Plug-In . SVG Version: 6.00 Build 0)  -->
<svg version="1.1" id="Layer_1" xmlns="http://www.w3.org/2000/svg" xmlns:xlink="http://www.w3.org/1999/xlink" x="0px" y="0px"
	 viewBox="0 0 487.6 185.2" style="enable-background:new 0 0 487.6 185.2;" xml:space="preserve">
<style type="text/css">
	.st0{fill:none;}
	.st1{fill:#BCBCBC;}
	.st2{font-family:'Open+Sans', serif;}
	.st3{font-size:43.2px;}
</style>
<rect x="13.9" y="138.1" class="st0" width="234.4" height="64.1"/>
<text transform="matrix(1 0 0 1 13.8684 169.0073)" class="st1 st2 st3">Roadshow</text>
<g id="XMLID_263_">
	<g>
		<path class="st1" d="M68.5,29.2H28.7V57h35.9v10.5H28.7v27.7h39.8v10.7h-51V18.5h51V29.2z"/>
		<path class="st1" d="M127.8,105.9h-13.2L99.9,83.8l-14.5,22.1H72.2l21.1-30.4L72.6,46.1h12.7l14.8,21.1l14-21.1h13.2l-20.9,29.4
			L127.8,105.9z"/>
		<path class="st1" d="M159.1,106.9c-6.3,0-11-1.7-14.3-5c-3.3-3.3-4.9-8.1-4.9-14.2V56.3h-10.5V46.1h10.5V27.8H151v18.3h14.7v10.3
			H151v30.5c0,6.5,2.7,9.8,8.1,9.8c2,0,3.7-0.3,5.1-1l3.9,9.6C165.7,106.4,162.7,106.9,159.1,106.9z"/>
		<path class="st1" d="M200.5,107.9c-9,0-16.4-3-22-9c-5.7-6-8.5-13.6-8.5-22.8c0-8.7,2.7-16.2,8.2-22.5c5.5-6.3,12.5-9.4,21.1-9.4
			c8.9,0,16,2.9,21.3,8.7c5.3,5.8,8,13.5,8,23.2l-0.1,2.1h-47.2c0.3,6,2.3,10.8,6,14.3c3.7,3.5,8,5.2,13,5.2
			c8.1,0,13.5-3.4,16.4-10.3l10,4.2c-2,4.6-5.2,8.5-9.6,11.7C212.5,106.3,207,107.9,200.5,107.9z M216.6,68.8
			c-0.2-3.4-1.8-6.7-4.7-9.8c-2.9-3.1-7.2-4.6-12.9-4.6c-4.2,0-7.8,1.3-10.8,3.9c-3.1,2.6-5.1,6.1-6.3,10.5H216.6z"/>
		<path class="st1" d="M247.1,46.1v8.3h0.5c1.6-2.8,4.2-5.3,7.7-7.3c3.5-2,7.2-3,11.2-3c7.4,0,13.1,2.3,17,6.8
			c3.9,4.6,5.9,10.7,5.9,18.3v36.6h-11.2V71c0-11.1-4.9-16.6-14.8-16.6c-4.6,0-8.4,1.9-11.4,5.6c-2.9,3.7-4.4,8-4.4,12.9v33.1h-11.2
			V46.1H247.1z"/>
		<path class="st1" d="M325.1,107.9c-7.7,0-14.4-3.1-20-9.2c-5.6-6.1-8.4-13.7-8.4-22.7c0-9,2.8-16.6,8.4-22.7
			c5.6-6.1,12.3-9.2,20-9.2c4.6,0,8.6,1,12.3,2.9c3.6,2,6.3,4.4,8.1,7.3h0.5l-0.5-8.3V18.5h11.2v87.4H346v-8.3h-0.5
			c-1.8,2.9-4.5,5.4-8.1,7.3C333.8,106.9,329.7,107.9,325.1,107.9z M326.9,97.6c5.3,0,9.8-2,13.5-5.9c3.7-3.9,5.6-9.2,5.6-15.8
			s-1.9-11.8-5.6-15.7c-3.7-3.9-8.2-5.9-13.5-5.9c-5.2,0-9.7,2-13.4,5.9c-3.7,3.9-5.6,9.2-5.6,15.7c0,6.5,1.9,11.7,5.6,15.7
			C317.3,95.6,321.7,97.6,326.9,97.6z"/>
		<path class="st1" d="M394.5,107.9c-9,0-16.4-3-22-9c-5.7-6-8.5-13.6-8.5-22.8c0-8.7,2.7-16.2,8.2-22.5c5.5-6.3,12.5-9.4,21.1-9.4
			c8.9,0,16,2.9,21.3,8.7c5.3,5.8,8,13.5,8,23.2l-0.1,2.1h-47.2c0.3,6,2.3,10.8,6,14.3c3.7,3.5,8,5.2,13,5.2
			c8.1,0,13.5-3.4,16.4-10.3l10,4.2c-2,4.6-5.2,8.5-9.6,11.7C406.5,106.3,401,107.9,394.5,107.9z M410.6,68.8
			c-0.2-3.4-1.8-6.7-4.7-9.8c-2.9-3.1-7.2-4.6-12.9-4.6c-4.2,0-7.8,1.3-10.8,3.9c-3.1,2.6-5.1,6.1-6.3,10.5H410.6z"/>
		<path class="st1" d="M456,107.9c-7.7,0-14.4-3.1-20-9.2c-5.6-6.1-8.4-13.7-8.4-22.7c0-9,2.8-16.6,8.4-22.7s12.3-9.2,20-9.2
			c4.6,0,8.6,1,12.3,2.9c3.6,2,6.3,4.4,8.1,7.3h0.5l-0.5-8.3V18.5h11.2v87.4h-10.7v-8.3h-0.5c-1.8,2.9-4.5,5.4-8.1,7.3
			C464.6,106.9,460.6,107.9,456,107.9z M457.8,97.6c5.3,0,9.8-2,13.5-5.9c3.7-3.9,5.6-9.2,5.6-15.8s-1.9-11.8-5.6-15.7
			c-3.7-3.9-8.2-5.9-13.5-5.9c-5.2,0-9.7,2-13.4,5.9c-3.7,3.9-5.6,9.2-5.6,15.7c0,6.5,1.9,11.7,5.6,15.7
			C448.1,95.6,452.6,97.6,457.8,97.6z"/>
	</g>
</g>
</svg>
