<?xml version="1.0" encoding="utf-8"?>
<!-- Generator: Adobe Illustrator 19.0.0, SVG Export Plug-In . SVG Version: 6.00 Build 0)  -->
<svg version="1.1" id="Layer_1" xmlns="http://www.w3.org/2000/svg" xmlns:xlink="http://www.w3.org/1999/xlink" x="0px" y="0px"
	 viewBox="0 0 1502.1 253.8" style="enable-background:new 0 0 1502.1 253.8;" xml:space="preserve">
<style type="text/css">
	.st0{fill:none;}
	.st1{fill:#BCBCBC;}
	.st2{font-family:'ProductSans-Regular';}
	.st3{font-size:43.2px;}
	.st4{fill:#FFD500;}
	.st5{fill:#1CE8B5;}
	.st6{fill:#FF6C00;}
	.st7{fill:#536DFE;}
</style>
<rect x="1028.4" y="189.7" class="st0" width="234.4" height="64.1"/>
<text transform="matrix(1 0 0 1 1028.3552 220.6422)" class="st1 st2 st3">Roadshow</text>
<g id="XMLID_263_">
	<g>
		<path class="st1" d="M1083,80.9h-39.8v27.7h35.9v10.5h-35.9v27.7h39.8v10.7h-51V70.1h51V80.9z"/>
		<path class="st1" d="M1142.3,157.5h-13.2l-14.8-22.1l-14.5,22.1h-13.2l21.1-30.4l-20.6-29.4h12.7l14.8,21.1l14-21.1h13.2
			l-20.9,29.4L1142.3,157.5z"/>
		<path class="st1" d="M1173.6,158.5c-6.3,0-11-1.7-14.3-5c-3.3-3.3-4.9-8.1-4.9-14.2V108h-10.5V97.7h10.5V79.4h11.2v18.3h14.7V108
			h-14.7v30.5c0,6.5,2.7,9.8,8.1,9.8c2,0,3.7-0.3,5.1-1l3.9,9.6C1180.2,158,1177.1,158.5,1173.6,158.5z"/>
		<path class="st1" d="M1215,159.5c-9,0-16.4-3-22-9c-5.7-6-8.5-13.6-8.5-22.8c0-8.7,2.7-16.2,8.2-22.5c5.5-6.3,12.5-9.4,21.1-9.4
			c8.9,0,16,2.9,21.3,8.7c5.3,5.8,8,13.5,8,23.2l-0.1,2.1h-47.2c0.3,6,2.3,10.8,6,14.3c3.7,3.5,8,5.2,13,5.2
			c8.1,0,13.5-3.4,16.4-10.3l10,4.2c-2,4.6-5.2,8.5-9.6,11.7C1227,157.9,1221.5,159.5,1215,159.5z M1231.1,120.4
			c-0.2-3.4-1.8-6.7-4.7-9.8c-2.9-3.1-7.2-4.6-12.9-4.6c-4.2,0-7.8,1.3-10.8,3.9c-3.1,2.6-5.1,6.1-6.3,10.5H1231.1z"/>
		<path class="st1" d="M1261.6,97.7v8.3h0.5c1.6-2.8,4.2-5.3,7.7-7.3c3.5-2,7.2-3,11.2-3c7.4,0,13.1,2.3,17,6.8
			c3.9,4.6,5.9,10.7,5.9,18.3v36.6h-11.2v-34.9c0-11.1-4.9-16.6-14.8-16.6c-4.6,0-8.4,1.9-11.4,5.6c-2.9,3.7-4.4,8-4.4,12.9v33.1
			h-11.2V97.7H1261.6z"/>
		<path class="st1" d="M1339.6,159.5c-7.7,0-14.4-3.1-20-9.2c-5.6-6.1-8.4-13.7-8.4-22.7c0-9,2.8-16.6,8.4-22.7s12.3-9.2,20-9.2
			c4.6,0,8.6,1,12.3,2.9c3.6,2,6.3,4.4,8.1,7.3h0.5l-0.5-8.3V70.1h11.2v87.4h-10.7v-8.3h-0.5c-1.8,2.9-4.5,5.4-8.1,7.3
			C1348.3,158.5,1344.2,159.5,1339.6,159.5z M1341.4,149.2c5.3,0,9.8-2,13.5-5.9c3.7-3.9,5.6-9.2,5.6-15.8c0-6.6-1.9-11.8-5.6-15.7
			c-3.7-3.9-8.2-5.9-13.5-5.9c-5.2,0-9.7,2-13.4,5.9c-3.7,3.9-5.6,9.2-5.6,15.7c0,6.5,1.9,11.7,5.6,15.7
			C1331.7,147.3,1336.2,149.2,1341.4,149.2z"/>
		<path class="st1" d="M1409,159.5c-9,0-16.4-3-22-9c-5.7-6-8.5-13.6-8.5-22.8c0-8.7,2.7-16.2,8.2-22.5c5.5-6.3,12.5-9.4,21.1-9.4
			c8.9,0,16,2.9,21.3,8.7c5.3,5.8,8,13.5,8,23.2l-0.1,2.1h-47.2c0.3,6,2.3,10.8,6,14.3c3.7,3.5,8,5.2,13,5.2
			c8.1,0,13.5-3.4,16.4-10.3l10,4.2c-2,4.6-5.2,8.5-9.6,11.7C1421,157.9,1415.5,159.5,1409,159.5z M1425.1,120.4
			c-0.2-3.4-1.8-6.7-4.7-9.8c-2.9-3.1-7.2-4.6-12.9-4.6c-4.2,0-7.8,1.3-10.8,3.9c-3.1,2.6-5.1,6.1-6.3,10.5H1425.1z"/>
		<path class="st1" d="M1470.5,159.5c-7.7,0-14.4-3.1-20-9.2c-5.6-6.1-8.4-13.7-8.4-22.7c0-9,2.8-16.6,8.4-22.7s12.3-9.2,20-9.2
			c4.6,0,8.6,1,12.3,2.9c3.6,2,6.3,4.4,8.1,7.3h0.5l-0.5-8.3V70.1h11.2v87.4h-10.7v-8.3h-0.5c-1.8,2.9-4.5,5.4-8.1,7.3
			C1479.1,158.5,1475,159.5,1470.5,159.5z M1472.3,149.2c5.3,0,9.8-2,13.5-5.9c3.7-3.9,5.6-9.2,5.6-15.8c0-6.6-1.9-11.8-5.6-15.7
			c-3.7-3.9-8.2-5.9-13.5-5.9c-5.2,0-9.7,2-13.4,5.9c-3.7,3.9-5.6,9.2-5.6,15.7c0,6.5,1.9,11.7,5.6,15.7
			C1462.6,147.3,1467.1,149.2,1472.3,149.2z"/>
	</g>
</g>
<polygon class="st4" points="530.6,192.3 530.6,190.5 528.7,192.3 "/>
<polygon class="st4" points="449.5,30.3 449.5,32.1 451.3,30.3 "/>
<polygon class="st4" points="530.6,34.9 449.5,115.9 449.5,120.7 530.6,39.6 "/>
<polygon class="st4" points="530.6,51.6 449.5,132.7 449.5,137.4 530.6,56.4 "/>
<polygon class="st4" points="530.6,68.4 449.5,149.5 449.5,154.2 530.6,73.1 "/>
<polygon class="st4" points="530.6,85.2 449.5,166.2 449.5,171 530.6,89.9 "/>
<polygon class="st4" points="530.6,101.9 449.5,183 449.5,187.7 530.6,106.7 "/>
<polygon class="st4" points="530.6,118.7 456.9,192.3 461.7,192.3 530.6,123.4 "/>
<polygon class="st4" points="530.6,135.5 473.7,192.3 478.4,192.3 530.6,140.2 "/>
<polygon class="st4" points="530.6,152.2 490.4,192.3 495.2,192.3 530.6,157 "/>
<polygon class="st4" points="511.9,192.3 530.6,173.7 530.6,169 507.2,192.3 "/>
<polygon class="st4" points="468.1,30.3 449.5,48.8 449.5,53.6 472.8,30.3 "/>
<polygon class="st4" points="528.7,192.3 530.6,190.5 530.6,185.8 524,192.3 "/>
<polygon class="st4" points="451.3,30.3 449.5,32.1 449.5,36.8 456.1,30.3 "/>
<polygon class="st4" points="518.4,30.3 449.5,99.2 449.5,103.9 523.1,30.3 "/>
<polygon class="st4" points="501.6,30.3 449.5,82.4 449.5,87.1 506.4,30.3 "/>
<polygon class="st4" points="484.9,30.3 449.5,65.6 449.5,70.4 489.6,30.3 "/>
<rect id="XMLID_262_" x="564.9" y="-1.5" transform="matrix(0.9754 0.2206 -0.2206 0.9754 39.1835 -123.1461)" class="st4" width="12" height="230.7"/>
<path class="st5" d="M681.1,69.3c23.1,0,42,18.8,42,42s-18.8,42-42,42s-42-18.8-42-42S657.9,69.3,681.1,69.3 M681.1,60.9
	c-27.8,0-50.4,22.5-50.4,50.4s22.5,50.4,50.4,50.4c27.8,0,50.4-22.5,50.4-50.4S708.9,60.9,681.1,60.9L681.1,60.9z"/>
<path class="st6" d="M681.1,35.8c41.7,0,75.5,33.9,75.5,75.5s-33.9,75.5-75.5,75.5c-41.7,0-75.5-33.9-75.5-75.5
	S639.4,35.8,681.1,35.8 M681.1,27.4c-46.4,0-83.9,37.6-83.9,83.9s37.6,83.9,83.9,83.9c46.4,0,83.9-37.6,83.9-83.9
	S727.4,27.4,681.1,27.4L681.1,27.4z"/>
<path class="st7" d="M681.1,102.9c4.6,0,8.4,3.8,8.4,8.4s-3.8,8.4-8.4,8.4s-8.4-3.8-8.4-8.4S676.4,102.9,681.1,102.9 M681.1,94.5
	c-9.3,0-16.8,7.5-16.8,16.8s7.5,16.8,16.8,16.8c9.3,0,16.8-7.5,16.8-16.8S690.3,94.5,681.1,94.5L681.1,94.5z"/>
<path id="XMLID_261_" class="st1" d="M0,109.4c0-27.6,23.2-50.1,50.8-50.1c15.3,0,26.1,6,34.3,13.8l-9.6,9.6
	c-5.9-5.5-13.8-9.8-24.7-9.8c-20.1,0-35.9,16.2-35.9,36.4c0,20.1,15.8,36.4,35.9,36.4c13.1,0,20.5-5.3,25.3-10
	c3.9-3.9,6.5-9.5,7.4-17.2H50.8v-13.7h46c0.5,2.4,0.7,5.4,0.7,8.5c0,10.3-2.8,23-11.8,32c-8.8,9.2-20,14-34.9,14
	C23.2,159.5,0,137,0,109.4z"/>
<path id="XMLID_258_" class="st1" d="M134.8,95c-17.8,0-32.4,13.6-32.4,32.2c0,18.6,14.5,32.2,32.4,32.2c17.8,0,32.4-13.7,32.4-32.2
	C167.1,108.6,152.6,95,134.8,95z M134.8,146.8c-9.8,0-18.2-8.1-18.2-19.5c0-11.6,8.4-19.5,18.2-19.5c9.8,0,18.2,7.9,18.2,19.5
	C152.9,138.7,144.5,146.8,134.8,146.8z"/>
<path id="XMLID_255_" class="st1" d="M205.3,95c-17.8,0-32.4,13.6-32.4,32.2c0,18.6,14.5,32.2,32.4,32.2c17.8,0,32.4-13.7,32.4-32.2
	C237.7,108.6,223.2,95,205.3,95z M205.3,146.8c-9.8,0-18.2-8.1-18.2-19.5c0-11.6,8.4-19.5,18.2-19.5s18.2,7.9,18.2,19.5
	C223.5,138.7,215.1,146.8,205.3,146.8z"/>
<path id="XMLID_252_" class="st1" d="M292,97v5.3h-0.5c-3.2-3.8-9.3-7.2-17-7.2c-16.1,0-30.9,14.2-30.9,32.4
	c0,18.1,14.8,32.1,30.9,32.1c7.7,0,13.8-3.4,17-7.3h0.5v4.6c0,12.3-6.6,18.9-17.2,18.9c-8.7,0-14-6.2-16.2-11.5l-12.3,5.1
	c3.5,8.5,12.9,19,28.6,19c16.6,0,30.6-9.8,30.6-33.6V97H292z M275.7,146.8c-9.8,0-17.9-8.2-17.9-19.4c0-11.4,8.2-19.7,17.9-19.7
	c9.6,0,17.2,8.3,17.2,19.7C293,138.6,285.4,146.8,275.7,146.8z"/>
<rect id="XMLID_251_" x="315.2" y="62.8" class="st1" width="14.2" height="94.7"/>
<path id="XMLID_248_" class="st1" d="M368.2,146.8c-7.2,0-12.3-3.3-15.6-9.8l43.1-17.8l-1.5-3.7c-2.7-7.2-10.9-20.5-27.6-20.5
	c-16.6,0-30.4,13.1-30.4,32.2c0,18.1,13.7,32.2,32,32.2c14.8,0,23.3-9,26.9-14.3l-11-7.3C380.4,143.3,375.4,146.8,368.2,146.8z
	 M367.1,107.5c5.6,0,10.4,2.8,12,6.8l-28.8,12C349.8,113.8,359.9,107.5,367.1,107.5z"/>
<path class="st5" d="M918.4,102.4c-12.5,0-22.7-10.2-22.7-22.7S905.9,57,918.4,57s22.7,10.2,22.7,22.7S931,102.4,918.4,102.4
	 M918.4,110.8c17.2,0,31.2-14,31.2-31.2c0-17.2-14-31.2-31.2-31.2c-17.2,0-31.2,14-31.2,31.2C887.3,96.9,901.2,110.8,918.4,110.8
	L918.4,110.8z"/>
<circle class="st7" cx="918.4" cy="79.7" r="10.5"/>
<path class="st6" d="M918.4,195.7c-29.1,0-52.7-23.6-52.7-52.7s23.6-52.7,52.7-52.7c29.1,0,52.7,23.6,52.7,52.7
	S947.5,195.7,918.4,195.7z M918.4,111.3c-17.4,0-31.6,14.2-31.6,31.6s14.2,31.6,31.6,31.6c17.4,0,31.6-14.2,31.6-31.6
	S935.9,111.3,918.4,111.3z"/>
<rect x="784.7" y="174.6" class="st5" width="63.3" height="21.1"/>
<rect x="805.8" y="69.1" class="st4" width="21.1" height="94.9"/>
<path class="st6" d="M816.3,27h-10.5c0,11.6-9.4,21.1-21.1,21.1v10.5v10.5c23.3,0,42.2-18.9,42.2-42.2H816.3z"/>
<path class="st4" d="M918.4,123.9c-24.4,0-44.3-19.9-44.3-44.3c0-24.4,19.9-44.3,44.3-44.3s44.3,19.9,44.3,44.3
	C962.7,104.1,942.8,123.9,918.4,123.9 M918.4,132.4c29.1,0,52.7-23.6,52.7-52.7c0-29.1-23.6-52.7-52.7-52.7
	c-29.1,0-52.7,23.6-52.7,52.7C865.7,108.8,889.3,132.4,918.4,132.4L918.4,132.4z"/>
</svg>
