<svg xmlns="http://www.w3.org/2000/svg" width="354.777" height="101.412" viewBox="0 0 354.777 101.412">
  <g id="Google_IO_19_logo" data-name="Google IO 19 logo" transform="translate(-511.086 -405.153)">
    <g id="Group_30" data-name="Group 30" transform="translate(724.917 405.153)">
      <rect id="Rectangle_39" data-name="Rectangle 39" width="36.206" height="72.413" transform="translate(0 13.368)" fill="#d3e3f9"/>
      <path id="Path_22" data-name="Path 22" d="M798.232,419.585a33.842,33.842,0,1,1-33.842,33.842,33.88,33.88,0,0,1,33.842-33.842m0-3.658a37.5,37.5,0,1,0,37.5,37.5,37.5,37.5,0,0,0-37.5-37.5Z" transform="translate(-694.786 -403.852)" fill="#4285f4"/>
      <rect id="Rectangle_40" data-name="Rectangle 40" width="103.078" height="3.962" transform="translate(40.916 100.538) rotate(-77.254)" fill="#5bb974"/>
    </g>
    <g id="Group_38" data-name="Group 38" transform="translate(511.086 430.402)">
      <g id="Group_31" data-name="Group 31">
        <path id="Path_23" data-name="Path 23" d="M511.086,451.574c0-13.166,11.043-23.889,24.233-23.889a22.74,22.74,0,0,1,16.375,6.581l-4.626,4.606a16.62,16.62,0,0,0-11.748-4.66,17.361,17.361,0,0,0,0,34.718,15.962,15.962,0,0,0,12.053-4.778c1.865-1.866,3.084-4.551,3.553-8.192H535.319v-6.544H557.27a21.351,21.351,0,0,1,.35,4.1c0,4.892-1.337,10.949-5.648,15.263-4.2,4.351-9.561,6.658-16.652,6.658-13.189,0-24.233-10.695-24.233-23.86" transform="translate(-511.086 -427.682)" fill="#5f6368"/>
      </g>
      <g id="Group_32" data-name="Group 32" transform="translate(48.831 17.015)">
        <path id="Path_24" data-name="Path 24" d="M570.086,467.562c-4.658,0-8.674-3.845-8.674-9.32s4.017-9.321,8.674-9.321,8.673,3.787,8.673,9.321-4.017,9.324-8.673,9.324v0m0-24.7a15.368,15.368,0,1,0,15.427,15.359A15.153,15.153,0,0,0,570.086,442.865Z" transform="translate(-554.658 -442.865)" fill="#5f6368"/>
      </g>
      <g id="Group_33" data-name="Group 33" transform="translate(82.488 17.015)">
        <path id="Path_25" data-name="Path 25" d="M600.117,467.562c-4.658,0-8.673-3.845-8.673-9.32s4.016-9.321,8.673-9.321,8.673,3.787,8.673,9.321-4.016,9.324-8.673,9.324v0m0-24.7a15.368,15.368,0,1,0,15.427,15.359A15.153,15.153,0,0,0,600.117,442.865Z" transform="translate(-584.69 -442.865)" fill="#5f6368"/>
      </g>
      <g id="Group_34" data-name="Group 34" transform="translate(150.288 1.638)">
        <rect id="Rectangle_41" data-name="Rectangle 41" width="6.754" height="45.204" fill="#5f6368"/>
      </g>
      <g id="Group_35" data-name="Group 35" transform="translate(150.288 1.638)">
        <rect id="Rectangle_42" data-name="Rectangle 42" width="6.754" height="45.204" fill="#5f6368"/>
      </g>
      <g id="Group_36" data-name="Group 36" transform="translate(160.318 17.033)">
        <path id="Path_26" data-name="Path 26" d="M668.856,448.806c2.678,0,4.949,1.338,5.7,3.263l-13.74,5.707a8.427,8.427,0,0,1,8.032-8.97h0m.523,18.758a7.817,7.817,0,0,1-7.45-4.66l20.553-8.5-.691-1.734c-1.282-3.436-5.18-9.785-13.158-9.785s-14.5,6.234-14.5,15.377a15.046,15.046,0,0,0,15.255,15.377,15.28,15.28,0,0,0,12.807-6.826l-5.239-3.494A8.847,8.847,0,0,1,669.379,467.564Z" transform="translate(-654.138 -442.881)" fill="#5f6368"/>
      </g>
      <g id="Group_37" data-name="Group 37" transform="translate(116.172 17.011)">
        <path id="Path_27" data-name="Path 27" d="M630.07,467.567c-4.658,0-8.561-3.9-8.561-9.26s3.9-9.379,8.561-9.379,8.186,3.959,8.186,9.379-3.6,9.26-8.2,9.26h.01M637.8,443.8v2.5h-.232a10.6,10.6,0,0,0-8.091-3.436c-7.687,0-14.732,6.758-14.732,15.436s7.045,15.3,14.732,15.3a10.473,10.473,0,0,0,8.091-3.5h.232v2.212c0,5.884-3.142,9.028-8.188,9.028a8.488,8.488,0,0,1-7.732-5.46L616,478.334a14.645,14.645,0,0,0,13.644,9.1c7.919,0,14.614-4.661,14.614-16.019V443.8Z" transform="translate(-614.747 -442.861)" fill="#5f6368"/>
      </g>
    </g>
  </g>
</svg>
