<?xml version="1.0" encoding="utf-8"?>
<!-- Generator: Adobe Illustrator 19.0.0, SVG Export Plug-In . SVG Version: 6.00 Build 0)  -->
<svg version="1.1" id="Layer_1" xmlns="http://www.w3.org/2000/svg" xmlns:xlink="http://www.w3.org/1999/xlink" x="0px" y="0px"
	 viewBox="0 0 429.2 161.1" style="enable-background:new 0 0 429.2 161.1;" xml:space="preserve">
<style type="text/css">
	.st0{fill:#BCBCBC;}
</style>
<path id="XMLID_261_" class="st0" d="M17.8,73.7c0-27.6,23.2-50.1,50.8-50.1c15.3,0,26.1,6,34.3,13.8l-9.6,9.6
	c-5.9-5.5-13.8-9.8-24.7-9.8c-20.1,0-35.9,16.2-35.9,36.4c0,20.1,15.8,36.4,35.9,36.4c13.1,0,20.5-5.3,25.3-10
	c3.9-3.9,6.5-9.5,7.4-17.2H68.6V69.2h46c0.5,2.4,0.7,5.4,0.7,8.5c0,10.3-2.8,23-11.8,32c-8.8,9.2-20,14-34.9,14
	C41,123.8,17.8,101.3,17.8,73.7z"/>
<path id="XMLID_258_" class="st0" d="M152.5,59.3c-17.8,0-32.4,13.6-32.4,32.2c0,18.6,14.5,32.2,32.4,32.2
	c17.8,0,32.4-13.7,32.4-32.2C184.9,72.9,170.4,59.3,152.5,59.3z M152.5,111.1c-9.8,0-18.2-8.1-18.2-19.5c0-11.6,8.4-19.5,18.2-19.5
	c9.8,0,18.2,7.9,18.2,19.5C170.7,103,162.3,111.1,152.5,111.1z"/>
<path id="XMLID_255_" class="st0" d="M223.1,59.3c-17.8,0-32.4,13.6-32.4,32.2c0,18.6,14.5,32.2,32.4,32.2
	c17.8,0,32.4-13.7,32.4-32.2C255.5,72.9,240.9,59.3,223.1,59.3z M223.1,111.1c-9.8,0-18.2-8.1-18.2-19.5c0-11.6,8.4-19.5,18.2-19.5
	c9.8,0,18.2,7.9,18.2,19.5C241.3,103,232.9,111.1,223.1,111.1z"/>
<path id="XMLID_252_" class="st0" d="M309.8,61.3v5.3h-0.5c-3.2-3.8-9.3-7.2-17-7.2c-16.1,0-30.9,14.2-30.9,32.4
	c0,18.1,14.8,32.1,30.9,32.1c7.7,0,13.8-3.4,17-7.3h0.5v4.6c0,12.3-6.6,18.9-17.2,18.9c-8.7,0-14-6.2-16.2-11.5l-12.3,5.1
	c3.5,8.5,12.9,19,28.6,19c16.6,0,30.6-9.8,30.6-33.6V61.3H309.8z M293.5,111.1c-9.8,0-17.9-8.2-17.9-19.4c0-11.4,8.2-19.7,17.9-19.7
	c9.6,0,17.2,8.3,17.2,19.7C310.7,102.9,303.2,111.1,293.5,111.1z"/>
<rect id="XMLID_251_" x="332.9" y="27.1" class="st0" width="14.2" height="94.7"/>
<path id="XMLID_248_" class="st0" d="M385.9,111.1c-7.2,0-12.3-3.3-15.6-9.8l43.1-17.8l-1.5-3.7c-2.7-7.2-10.9-20.5-27.6-20.5
	c-16.6,0-30.4,13.1-30.4,32.2c0,18.1,13.7,32.2,32,32.2c14.8,0,23.3-9,26.9-14.3l-11-7.3C398.1,107.5,393.1,111.1,385.9,111.1z
	 M384.8,71.8c5.6,0,10.4,2.8,12,6.8l-28.8,12C367.6,78.1,377.6,71.8,384.8,71.8z"/>
</svg>
