<svg xmlns="http://www.w3.org/2000/svg" width="403.163" height="682.363" viewBox="0 0 403.163 682.363">
  <g id="header_asset" data-name="header asset" transform="translate(-935.945 -177.897)">
    <path id="path_4" d="M192,125.9V-8.08H131.95c0,12.05,7.05,23.06,17.52,31.45H106.84c0,14.14,5.98,27.98,16.04,39.63H81.63c0,33.56,28.78,61.67,62.43,62.9Z" transform="translate(986.32 734.36)" fill="#cbf0f8"/>
    <g id="event_narrow_app_reviews3" transform="translate(964.983 194.037)">
      <path id="path_3" d="M.62,82.159A78.088,78.088,0,1,0,23.491,26.941,78.119,78.119,0,0,0,.62,82.159" transform="translate(0 32.985)" fill="none" stroke="#3c7eeb" stroke-width="5"/>
      <path id="path_4-2" data-name="path_4" d="M47.76,25.09A38.731,38.731,0,1,0,59.1-2.3,38.734,38.734,0,0,0,47.76,25.09" transform="translate(87.798 0)" fill="none" stroke="#fff" stroke-width="5"/>
      <path id="path_5" d="M19.51,0V45.8" transform="translate(35.183 25.404)" fill="none" stroke="#ee675c" stroke-width="5"/>
    </g>
    <path id="path_4-3" data-name="path_4" d="M169.5,2.5v195h156V96.27H277.34V45.54h-51.7V2.5H169.51Z" transform="translate(1011.108 365)" fill="none" stroke="#af5cf7" stroke-width="5"/>
    <path id="path_3-2" data-name="path_3" d="M157.645-32.45A87.5,87.5,0,0,1,132.024,29.4,87.5,87.5,0,0,1,70.172,55.022,87.5,87.5,0,0,1,8.321,29.4,87.5,87.5,0,0,1-17.3-32.45" transform="translate(1060.3 478.45)" fill="#fbbc04" fill-rule="evenodd"/>
    <g id="event_narrow_office_hours2" transform="translate(932.23 580.31)">
      <path id="path" d="M40.48,80.633H109.1V-3.46C72.49-3.46,42.567,40.486,40.48,80.633" transform="translate(46.014 19.974)" fill="none" stroke="#f9ab00" stroke-width="5"/>
      <path id="path_1" d="M109.968,100.349V-18.31C57.392-18.31,7.677,35.907,6.27,100.349h103.7" transform="translate(0 0)" fill="none" stroke="#fde293" stroke-width="5"/>
    </g>
  </g>
</svg>
