<?xml version="1.0" encoding="utf-8"?>
<!-- Generator: Adobe Illustrator 19.0.0, SVG Export Plug-In . SVG Version: 6.00 Build 0)  -->
<svg version="1.1" id="Layer_1" xmlns="http://www.w3.org/2000/svg" xmlns:xlink="http://www.w3.org/1999/xlink" x="0px" y="0px"
	 viewBox="0 0 577.5 242.9" style="enable-background:new 0 0 577.5 242.9;" xml:space="preserve">
<style type="text/css">
	.st0{fill:#FFD500;}
	.st1{fill:#1CE8B5;}
	.st2{fill:#FF6C00;}
	.st3{fill:#536DFE;}
</style>
<polygon class="st0" points="99.5,192.3 99.5,190.5 97.7,192.3 "/>
<polygon class="st0" points="18.5,30.3 18.5,32.1 20.3,30.3 "/>
<polygon class="st0" points="99.5,34.9 18.5,115.9 18.5,120.7 99.5,39.6 "/>
<polygon class="st0" points="99.5,51.6 18.5,132.7 18.5,137.4 99.5,56.4 "/>
<polygon class="st0" points="99.5,68.4 18.5,149.5 18.5,154.2 99.5,73.1 "/>
<polygon class="st0" points="99.5,85.2 18.5,166.2 18.5,171 99.5,89.9 "/>
<polygon class="st0" points="99.5,101.9 18.5,183 18.5,187.7 99.5,106.7 "/>
<polygon class="st0" points="99.5,118.7 25.9,192.3 30.7,192.3 99.5,123.4 "/>
<polygon class="st0" points="99.5,135.5 42.7,192.3 47.4,192.3 99.5,140.2 "/>
<polygon class="st0" points="99.5,152.2 59.4,192.3 64.2,192.3 99.5,157 "/>
<polygon class="st0" points="80.9,192.3 99.5,173.7 99.5,169 76.2,192.3 "/>
<polygon class="st0" points="37.1,30.3 18.5,48.8 18.5,53.6 41.8,30.3 "/>
<polygon class="st0" points="97.7,192.3 99.5,190.5 99.5,185.8 92.9,192.3 "/>
<polygon class="st0" points="20.3,30.3 18.5,32.1 18.5,36.8 25.1,30.3 "/>
<polygon class="st0" points="87.4,30.3 18.5,99.2 18.5,103.9 92.1,30.3 "/>
<polygon class="st0" points="70.6,30.3 18.5,82.4 18.5,87.1 75.4,30.3 "/>
<polygon class="st0" points="53.9,30.3 18.5,65.6 18.5,70.4 58.6,30.3 "/>
<rect id="XMLID_262_" x="133.9" y="-1.5" transform="matrix(0.9754 0.2206 -0.2206 0.9754 28.5625 -28.0522)" class="st0" width="12" height="230.7"/>
<path class="st1" d="M250,69.3c23.1,0,42,18.8,42,42s-18.8,42-42,42s-42-18.8-42-42S226.9,69.3,250,69.3 M250,60.9
	c-27.8,0-50.4,22.5-50.4,50.4s22.5,50.4,50.4,50.4s50.4-22.5,50.4-50.4S277.9,60.9,250,60.9L250,60.9z"/>
<path class="st2" d="M250,35.8c41.7,0,75.5,33.9,75.5,75.5s-33.9,75.5-75.5,75.5s-75.5-33.9-75.5-75.5S208.4,35.8,250,35.8
	 M250,27.4c-46.4,0-83.9,37.6-83.9,83.9s37.6,83.9,83.9,83.9c46.4,0,83.9-37.6,83.9-83.9S296.4,27.4,250,27.4L250,27.4z"/>
<path class="st3" d="M250,102.9c4.6,0,8.4,3.8,8.4,8.4s-3.8,8.4-8.4,8.4c-4.6,0-8.4-3.8-8.4-8.4S245.4,102.9,250,102.9 M250,94.5
	c-9.3,0-16.8,7.5-16.8,16.8s7.5,16.8,16.8,16.8c9.3,0,16.8-7.5,16.8-16.8S259.3,94.5,250,94.5L250,94.5z"/>
<path class="st1" d="M487.4,102.4c-12.5,0-22.7-10.2-22.7-22.7S474.9,57,487.4,57s22.7,10.2,22.7,22.7S499.9,102.4,487.4,102.4
	 M487.4,110.8c17.2,0,31.2-14,31.2-31.2c0-17.2-14-31.2-31.2-31.2c-17.2,0-31.2,14-31.2,31.2C456.3,96.9,470.2,110.8,487.4,110.8
	L487.4,110.8z"/>
<circle class="st3" cx="487.4" cy="79.7" r="10.5"/>
<path class="st2" d="M487.4,195.7c-29.1,0-52.7-23.6-52.7-52.7s23.6-52.7,52.7-52.7c29.1,0,52.7,23.6,52.7,52.7
	S516.5,195.7,487.4,195.7z M487.4,111.3c-17.4,0-31.6,14.2-31.6,31.6s14.2,31.6,31.6,31.6s31.6-14.2,31.6-31.6
	S504.9,111.3,487.4,111.3z"/>
<rect x="353.6" y="174.6" class="st1" width="63.3" height="21.1"/>
<rect x="374.7" y="69.1" class="st0" width="21.1" height="94.9"/>
<path class="st2" d="M385.3,27h-10.5c0,11.6-9.4,21.1-21.1,21.1v10.5v10.5c23.3,0,42.2-18.9,42.2-42.2H385.3z"/>
<path class="st0" d="M487.4,123.9c-24.4,0-44.3-19.9-44.3-44.3c0-24.4,19.9-44.3,44.3-44.3c24.4,0,44.3,19.9,44.3,44.3
	C531.7,104.1,511.8,123.9,487.4,123.9 M487.4,132.4c29.1,0,52.7-23.6,52.7-52.7c0-29.1-23.6-52.7-52.7-52.7
	c-29.1,0-52.7,23.6-52.7,52.7C434.7,108.8,458.3,132.4,487.4,132.4L487.4,132.4z"/>
</svg>
