<?xml version="1.0" encoding="utf-8"?>
<!-- Generator: Adobe Illustrator 19.0.0, SVG Export Plug-In . SVG Version: 6.00 Build 0)  -->
<svg version="1.1" id="Layer_1" xmlns="http://www.w3.org/2000/svg" xmlns:xlink="http://www.w3.org/1999/xlink" x="0px" y="0px"
	 viewBox="0 0 536 242" style="enable-background:new 0 0 536 242;" xml:space="preserve">
<style type="text/css">
	.st0{fill:#1CE8B5;}
	.st1{fill:#FFD500;}
	.st2{fill:#536DFE;}
	.st3{fill:#FF6C00;}
</style>
<g>
	<polygon class="st0" points="86.3,202.5 86.3,200.6 84.5,202.5 	"/>
	<polygon class="st0" points="5.3,40.4 5.3,42.2 7.1,40.4 	"/>
	<polygon class="st0" points="86.3,45 5.3,126 5.3,130.8 86.3,49.7 	"/>
	<polygon class="st0" points="86.3,61.7 5.3,142.8 5.3,147.5 86.3,66.5 	"/>
	<polygon class="st0" points="86.3,78.5 5.3,159.6 5.3,164.3 86.3,83.2 	"/>
	<polygon class="st0" points="86.3,95.3 5.3,176.3 5.3,181.1 86.3,100 	"/>
	<polygon class="st0" points="86.3,112 5.3,193.1 5.3,197.8 86.3,116.8 	"/>
	<polygon class="st0" points="86.3,128.8 12.7,202.5 17.4,202.5 86.3,133.5 	"/>
	<polygon class="st0" points="86.3,145.6 29.4,202.5 34.2,202.5 86.3,150.3 	"/>
	<polygon class="st0" points="86.3,162.3 46.2,202.5 50.9,202.5 86.3,167.1 	"/>
	<polygon class="st0" points="67.7,202.5 86.3,183.8 86.3,179.1 63,202.5 	"/>
	<polygon class="st0" points="23.9,40.4 5.3,59 5.3,63.7 28.6,40.4 	"/>
	<polygon class="st0" points="84.5,202.5 86.3,200.6 86.3,195.9 79.7,202.5 	"/>
	<polygon class="st0" points="7.1,40.4 5.3,42.2 5.3,46.9 11.8,40.4 	"/>
	<polygon class="st0" points="74.2,40.4 5.3,109.3 5.3,114 78.9,40.4 	"/>
	<polygon class="st0" points="57.4,40.4 5.3,92.5 5.3,97.2 62.1,40.4 	"/>
	<polygon class="st0" points="40.6,40.4 5.3,75.7 5.3,80.5 45.4,40.4 	"/>
	
		<rect id="XMLID_1242_" x="120.7" y="8.6" transform="matrix(0.9754 0.2206 -0.2206 0.9754 30.4658 -24.8885)" class="st0" width="12" height="230.7"/>
	<path class="st1" d="M236.8,79.4c23.1,0,42,18.8,42,42s-18.8,42-42,42s-42-18.8-42-42S213.7,79.4,236.8,79.4 M236.8,71
		c-27.8,0-50.4,22.5-50.4,50.4s22.5,50.4,50.4,50.4s50.4-22.5,50.4-50.4S264.7,71,236.8,71L236.8,71z"/>
	<path class="st2" d="M236.8,45.9c41.7,0,75.5,33.9,75.5,75.5S278.5,197,236.8,197s-75.5-33.9-75.5-75.5S195.2,45.9,236.8,45.9
		 M236.8,37.5c-46.4,0-83.9,37.6-83.9,83.9s37.6,83.9,83.9,83.9c46.4,0,83.9-37.6,83.9-83.9S283.2,37.5,236.8,37.5L236.8,37.5z"/>
	<path class="st3" d="M236.8,113c4.6,0,8.4,3.8,8.4,8.4c0,4.6-3.8,8.4-8.4,8.4c-4.6,0-8.4-3.8-8.4-8.4
		C228.4,116.8,232.2,113,236.8,113 M236.8,104.6c-9.3,0-16.8,7.5-16.8,16.8s7.5,16.8,16.8,16.8c9.3,0,16.8-7.5,16.8-16.8
		S246.1,104.6,236.8,104.6L236.8,104.6z"/>
	<path class="st3" d="M474.2,112.5c-12.5,0-22.7-10.2-22.7-22.7s10.2-22.7,22.7-22.7s22.7,10.2,22.7,22.7S486.7,112.5,474.2,112.5
		 M474.2,120.9c17.2,0,31.2-14,31.2-31.2c0-17.2-14-31.2-31.2-31.2c-17.2,0-31.2,14-31.2,31.2C443,107,457,120.9,474.2,120.9
		L474.2,120.9z"/>
	<circle class="st1" cx="474.2" cy="89.8" r="10.5"/>
	<path class="st0" d="M474.2,205.8c-29.1,0-52.7-23.6-52.7-52.7s23.6-52.7,52.7-52.7s52.7,23.6,52.7,52.7S503.3,205.8,474.2,205.8z
		 M474.2,121.4c-17.4,0-31.6,14.2-31.6,31.6s14.2,31.6,31.6,31.6c17.4,0,31.6-14.2,31.6-31.6S491.7,121.4,474.2,121.4z"/>
	<rect x="340.4" y="184.7" class="st3" width="63.3" height="21.1"/>
	<rect x="361.5" y="79.2" class="st2" width="21.1" height="94.9"/>
	<path class="st0" d="M372.1,37.1h-10.5c0,11.6-9.4,21.1-21.1,21.1v10.5v10.5c23.3,0,42.2-18.9,42.2-42.2H372.1z"/>
	<path class="st2" d="M474.2,134c-24.4,0-44.3-19.9-44.3-44.3c0-24.4,19.9-44.3,44.3-44.3c24.4,0,44.3,19.9,44.3,44.3
		C518.5,114.2,498.6,134,474.2,134 M474.2,142.5c29.1,0,52.7-23.6,52.7-52.7c0-29.1-23.6-52.7-52.7-52.7
		c-29.1,0-52.7,23.6-52.7,52.7C421.5,118.9,445.1,142.5,474.2,142.5L474.2,142.5z"/>
</g>
</svg>
