<svg xmlns="http://www.w3.org/2000/svg" width="65.989" height="32.982" viewBox="0 0 65.989 32.982">
  <g id="io19" transform="translate(-75.843 -38)">
    <g id="Copy_of_io_2019_hashtag_extended_logo_lockup" data-name="Copy of io 2019 hashtag extended logo lockup" transform="translate(75.843 38)">
      <g id="Group_19" data-name="Group 19">
        <g id="Group_15" data-name="Group 15">
          <g id="Group_1" data-name="Group 1" transform="translate(0)">
            <circle id="Ellipse_1" data-name="Ellipse 1" cx="5.497" cy="5.497" r="5.497" fill="#4285f4"/>
          </g>
          <g id="Group_3" data-name="Group 3" transform="translate(0 10.994)">
            <g id="Group_2" data-name="Group 2">
              <path id="Path_1" data-name="Path 1" d="M466.027,447.578V467.5h-8.933V447.578h8.933m1.031-1.031H456.063v21.988h10.994V446.547Z" transform="translate(-456.063 -446.547)" fill="#d2e3fc"/>
            </g>
          </g>
          <g id="Group_5" data-name="Group 5" transform="translate(33.007 10.994)">
            <g id="Group_4" data-name="Group 4">
              <path id="Path_2" data-name="Path 2" d="M567.866,447.578V467.5h-8.933V447.578h8.933m1.031-1.031H557.9v21.988H568.9V446.547Z" transform="translate(-557.903 -446.547)" fill="#fdedc5"/>
            </g>
          </g>
          <g id="Group_11" data-name="Group 11" transform="translate(54.995 0)">
            <g id="Group_10" data-name="Group 10">
              <path id="Path_3" data-name="Path 3" d="M626.777,414.294l8.933,4.466v25.818h-8.933V414.294m-1.031-1.667V423.62h0v21.988H636.74V418.123l-10.994-5.5Z" transform="translate(-625.746 -412.626)" fill="#ceead6"/>
            </g>
          </g>
          <g id="Group_12" data-name="Group 12" transform="translate(10.994 10.994)">
            <path id="Path_4" data-name="Path 4" d="M500.979,447.578a9.978,9.978,0,0,1,9.91,8.933H491.068a9.978,9.978,0,0,1,9.91-8.933m0-1.031a10.994,10.994,0,0,0-10.994,10.994h21.988a10.994,10.994,0,0,0-10.994-10.994Z" transform="translate(-489.985 -446.547)" fill="#fad2cf"/>
          </g>
          <g id="Group_13" data-name="Group 13" transform="translate(10.994 21.988)">
            <path id="Path_5" data-name="Path 5" d="M500.979,491.463a10.994,10.994,0,0,0,10.994-10.994H489.985A10.994,10.994,0,0,0,500.979,491.463Z" transform="translate(-489.985 -480.469)" fill="#e5443f"/>
          </g>
          <g id="Group_14" data-name="Group 14" transform="translate(44.001 0)">
            <path id="Path_6" data-name="Path 6" d="M591.824,423.62a10.994,10.994,0,0,0,10.994,10.994V412.626A10.994,10.994,0,0,0,591.824,423.62Z" transform="translate(-591.824 -412.626)" fill="#34a853"/>
          </g>
        </g>
      </g>
      <path id="Path_15" data-name="Path 15" d="M560.239,412.7h-8.9l-.306.612h0l-1.084,2.168-1.119,2.238h0l-2.657,5.315a.389.389,0,0,0,.378.612h14.375V412.7Z" transform="translate(-516.922 -412.678)" fill="#fbbc04"/>
    </g>
  </g>
</svg>
