<svg id="outline-location_on-24px_1_" data-name="outline-location_on-24px (1)" xmlns="http://www.w3.org/2000/svg" width="17.342" height="17.342" viewBox="0 0 17.342 17.342">
  <path id="Path_37" data-name="Path 37" d="M0,0H17.342V17.342H0Z" fill="none"/>
  <path id="Path_38" data-name="Path 38" d="M10.058,2A5.054,5.054,0,0,0,5,7.058c0,3.794,5.058,9.394,5.058,9.394s5.058-5.6,5.058-9.394A5.054,5.054,0,0,0,10.058,2ZM6.445,7.058a3.613,3.613,0,0,1,7.226,0c0,2.081-2.081,5.2-3.613,7.139C8.555,12.268,6.445,9.118,6.445,7.058Z" transform="translate(-1.387 -0.555)" fill="#fff"/>
  <circle id="Ellipse_2" data-name="Ellipse 2" cx="1.806" cy="1.806" r="1.806" transform="translate(6.865 4.697)" fill="#fff"/>
</svg>
