<?xml version="1.0" encoding="utf-8"?>
<!-- Generator: Adobe Illustrator 19.0.0, SVG Export Plug-In . SVG Version: 6.00 Build 0)  -->
<svg version="1.1" id="Layer_1" xmlns="http://www.w3.org/2000/svg" xmlns:xlink="http://www.w3.org/1999/xlink" x="0px" y="0px"
	 viewBox="0 0 1500 1500" style="enable-background:new 0 0 1500 1500;" xml:space="preserve">
<style type="text/css">
	.st0{fill-rule:evenodd;clip-rule:evenodd; opacity: 0.075}
</style>
<path class="st0" d="M1178.6,1285.4c-0.8-0.1-1.6-0.2-2.4-0.3c-2-0.3-4.1-0.7-6.1-1c-0.1,2.9-3.3,5.5-0.3,8.6c4.7,5,7,10.1,4,17.6
	c-2.1,5.2-0.9,11.8-1.5,17.7c-0.4,3.3-1.4,6.6-2.2,9.9c-0.5,0.2-0.9,0.4-1.4,0.6c-0.9-2.1-1.7-4.3-2.7-6.4c-0.5-1-1.4-1.9-1.7-3
	c-1.7-6.3-4.1-12.5-4.8-19c-0.6-6.2,0.6-12.5,0.9-18.5c-8.5-2.7-9.3-4.4-9.6-12.4c-0.1-3.1-1.5-6.7-3.6-8.9c-2.6-2.7-3-5.8-4.3-8.9
	c-2-4.9-5.1-9.3-2.2-14.8c-1.6-0.8-4.1-2.7-4.8-2.2c-5.2,3.7-10.6,7.3-14.6,12.2c-1.6,1.9,0.4,6.7,0.7,10.2c0.5,0.1,0.9,0.2,1.4,0.3
	c0.9-2.1,1.9-4.1,2.9-6.4c1.5,0.9,3.1,1.7,4.4,2.8c1,0.8,2.5,1.9,2.5,2.9c0,6.5-0.4,12.9-0.7,19.4c-0.6,0.1-1.2,0.2-1.9,0.3
	c-0.7-3-1.9-6-2-9c-0.2-5-3.1-7.2-5.6-8.3c-4.6,2.2-8.4,3.6-11.7,5.8c-2.1,1.4-4.7,3.9-4.8,5.9c-0.1,5-3,8-5.8,11
	c-5.9,6.4-4.9,14-4.3,21.4c0.2,3.2,4.6,4.4,7,2.5c3.5,1.8,3.5,7.9,9.3,6.9c0.6-0.1,2,2,2.3,3.2c1.9,8.4,6.7,15.6,9.5,23.6
	c2.7,7.5,2,15.6-1.3,22.7c-2.7,5.7-7.2,10.6-10.8,15.9c-4,5.9-8.3,11.6-11.7,17.8c-2,3.7-4.1,4-7.6,3.1c-3.6-0.9-3.4-2.6-3.1-5.8
	c0.3-2.4-1.5-5.4-3.1-7.4c-2.8-3.4-6.2-6.2-9.4-9.3c7.8-4.8,12.1-15.2,10.1-23.5c-1.2-4.8-5.6-2.4-8.3-3.6c-0.6-0.3-2.7,1.7-3.3,3
	c-2.2,4.8-4,9.7-5.9,14.5c-0.5,1.3-0.8,2.7-1.3,4.7c-6.8,0.9-13.8,0.6-20.4-2.3c-11.5-5-22.9-10.5-34.4-15.7
	c-4.1-1.8-8.9-2.5-12.5-5c-5.3-3.7-12.5-4.8-15.3-12.2c-1.6-4.4-5.4-8.1-8.6-11.7c-3.4-3.8-3.5-9.1-2.4-13.8c1-4.1-0.7-8.9-1.1-13.4
	c-0.2-1.9-0.4-3.9,0.1-5.7c1-3.4-0.9-5-6.9-4.5c0.5-5.4,0.7-10.7,1.6-15.8c0.6-3.1,2.4-6,3.7-9c1.8-4,4.6-6.4,8.8-8.6
	c6-3.1,9.2-9.3,9.3-16.7c6.9-0.4,2.2-4.5,2.6-7.9c-5.7,2.7-8.1,0.1-10.3-4.4c-2.4-4.9-4.8-10.3-8.8-13.6c-4.2-3.4-10.1-5.1-15.6-6.6
	c-3.8-1.1-8.1-0.6-11-3.9c-1.4-1.6-1.9-4.5-3.5-5.2c-6.9-2.9-13.6-8.7-21.9-3.1c-1.2,0.8-3.1,0.6-5.9,1c1,2.4,1.4,5.6,3,6.4
	c2.9,1.5,3,3.8,2.4,5.7c-0.7,2.1-2.4,4-4.1,5.6c-1.5,1.4-3.6,2.3-5.5,3.3c-3.8,2.1-3.8,3.2-0.3,6.4c3.5,3.2,5.1,8.5,7.5,12.9
	c-0.5,0.6-1,1.1-1.5,1.7c-3.1-1.8-6.9-3-9.1-5.5c-2-2.3-6.6-5-2.1-9.2c-8.3-2.6-12.3-1.1-12.1,5.1c-0.8-1-1.2-1.5-1.7-2
	c-1.5-1.5-3.1-3.1-4.7-4.6c1.9-0.9,3.8-1.9,5.7-2.7c2.2-0.9,2.4-4.2,0.1-6.2c-1.1-1-2.5-1.5-2.8-2.7c-0.7-2.2-1.4-4.4-2-6.5
	c-10.3,5.7-8.5,16-12.7,24.2c-1.4-1-3.2-2.2-4.9-3.5c-1.2-0.9-2.2-2-3.3-3c-1.4,1.5-4.2,4-3.9,4.4c2.6,3.7-1.3,4.2-3.1,5.6
	c1.6,2.7,3,5,4.4,7.3c0.4-0.1,0.8-0.3,1.2-0.4c0.3-1.9,0.6-3.7,1-6.8c1.7,1.7,3.9,3.4,3.7,3.8c-1.4,2.6-3,5.2-5.1,7.1
	c-1.6,1.4-4.1,1.7-6.2,2.6c-1.8-4.4-1.9-8.6,0.1-13c1.7-3.8,1.3-4.1-3.7-6c2.2-0.9,3.7-1.5,5.4-2.2c-1.2-3.7-2.8-7.4-3.4-11.2
	c-0.3-2.1,1.2-4.5,1.5-6.8c0.2-1.4,0.1-4.1-0.5-4.3c-3.9-1.2-8-2.6-12.1-2.6c-7.2,0.1-12.6,4.1-16.7,9.9c-1.3,1.9-2.7,3.8-4,5.7
	c-1,1.4-1.8,2.9-2.7,4.4c1.5,0.4,3.1,0.9,6.1,1.8c-3.5,2-6.1,3.8-9,5.1c-6.1,2.9-6.9,6.5-1.5,12.5c-2.7,1.6-5.2,3-8.4,4.9
	c-0.2,5.5-5.9,10.9-4,18.1c0.1,0.3-0.3,1-0.7,1.2c-4.9,2.8-4.4,8.2-5.7,12.5c-1.8,6-5,8-10.8,5.8c-3.4-1.3-7-2.4-9.9-4.4
	c-4.4-3-4.7-8.3-5-12.9c-0.5-7.9,4.7-13.3,12.6-17.3c0.8-0.4,1.6-0.8,2.9-1.4c-6.7-5.6,0.2-10.5,0.2-15.8c0-3.5,2.2-6.8,5.5-8.7
	c0.4-0.2,0.8-1.1,0.8-1.1c-4-3.8,1.6-8.4-1.2-12.3c-0.9-1.3-1.7-2.7-3.2-5c3.4-3.9,7.2-8.3,11-12.7c0.6-0.8,1.8-1.5,1.8-2.3
	c-0.1-9.4,8-9.7,13.7-11.9c5.7-2.1,12.1-2,18-3.8c3.3-1,6.1-3.7,9.3-5.7c3.8,4.1,9.4,2.4,14.2,1.5c4.7-0.9,9.4-3,13.5-5.6
	c4.3-2.7,4-4.6,0.5-8.1c-0.9-0.9-1.7-2-2.9-3.5c4.3-0.6,4.7-3.1,4.4-6.4c-0.5-6.4,5.9-13.5,12.4-13.8c3.9-0.2,7.9,0.1,11.7,0.6
	c4.5,0.6,7.4-0.6,8.7-5.2c0.8-2.8,0.9-6.6,5.8-5.1c0.1,0,1.7-2.7,1.6-4.1c-0.1-1.4-1.5-2.7-2.7-4.8c4.5,0.6,8.2,2.4,8.8,5.7
	c1,5.1,5.4,2.8,7.7,4.6c0.2,0.2,2.6-2.5,4.1-3.9c1.5,0.5,4.2,0.6,5.9,1.9c3.5,2.6,7.6,5.3,9.6,9c3,5.4,4.8,11.5,6.4,17.5
	c1.2,4.7,1.6,9.8,1.8,14.7c0.1,1.4-1.4,3-2.5,4.2c-2.2,2.6-4.6,5-6.9,7.5c0.4,0.5,0.9,1,1.3,1.5c4.3-2.2,9.2-3.6,12.6-6.7
	c4.4-4.1,8.8-6,14.8-5.7c3.8,0.2,8.3,0,11.5-1.8c2.4-1.3,3.9-5.3,4.7-8.3c1.9-6.8,1.9-14.4,4.9-20.6c1.9-3.9,7.9-5.8,11.9-8.6
	c4.7,4.5,8.1,9.5,14.8,9.5c1.2,0,3.2,0.8,3.3,1.5c0.8,3.8,3.6,3.5,5.8,2.6c1.9-0.8,5.1-1.9,3-5.5c-0.4-0.7,0.6-2.1,0.6-3.2
	c0.2-2.3,0.3-4.6,0.2-6.9c-0.1-1.4-1.4-3.4-0.8-4c4.4-5.1,2.9-11.5,3.9-17.2c0.2-1.1,0.2-2.5-0.4-3.4c-2-3.2-0.4-5.9,1.9-7.3
	c1.8-1,5-0.9,7,0.1c5.9,2.9,11.9,6.1,15.6,12c1.6,2.6,3.2,4,6.3,2.7c3.4-1.4,5.6-3.6,5.5-7.4c0-4.4-0.2-8.8-0.1-13.2
	c0-1,0.8-1.9,1.4-3.2c4.6,9,16.5,12.9,25,8.2c2-1.1,4.4-3.7,4.6-5.7c0.4-5,0.3-10.2-1-15c-3.5-13-8.2-25.8-11.4-38.8
	c-1.3-5.2-2.2-11.7,4.9-14.8c5.5,2.2,11.6,4.7,17.3,6.9c-1.6,2.1-4.2,4.1-3.8,5.2c0.7,2.4,2.5,5.2,4.7,6.2c5.3,2.4,11.2,3.5,16.4,6
	c3.8,1.8,6.8,5.2,10.3,8c-2.5,2-6.2,2.5-1.6,5.5c2.8,1.9,4.6,5.8,6.2,9.1c3.5,6.9,8.8,8.1,14.9,2.9c1.2-1,2.1-2.3,4.1-3
	c-0.8,5.2-1.7,10.4-2.4,15.6c-0.2,1.3-0.5,3.2,0.2,4c3.6,4.1,7.9,7.5,11.1,11.8c1.7,2.3,2.1,5.9,2.5,9c0.6,4.1-1.1,7.1-5.5,8.1
	c-0.7,0.2-1.6,0.9-1.8,1.6c-2,5-6.8,6.7-10.8,9.2c-2.7,1.7-3.6,3.6-1.1,6.2c0.5,0.5,0.6,1.4,0.8,2.2c1.1,3.8,3.6,4.4,6.9,2.9
	c6-2.7,11.3,0,16.6,2c0.3,0.1,0.1,2.2-0.2,3.2c-0.3,1.2-1.8,3-1.4,3.4c3.5,4.3-1,5.2-3.4,7.8c1.3,1.8,2.6,3.7,4.5,6.4
	c-0.1,2.4-7.6,4.3-2.7,8.2c1.5,1.2,6-1.3,9.9-2.2c-0.8,5.4-1.5,11.6-2.6,17.7c-0.5,2.5,0.5,6.3-4,6.8c-0.3,0-0.9,1.8-0.7,2.6
	c1.2,3.6,0.9,8.1,5.9,9.5c1,0.3,2,1.1,2.9,1.8c2.9,2.5,5.8,5.1,9.7,8.5c-0.5,5-0.2,11.7,4.3,17.5c0,1.7,0,3.3,0,5
	c-1.5,0.7-2.9,1.4-5.1,2.4c3.1,4.1-2.3,10.5,4.1,14.7c-4.7,7.7-9.7,15.8-14.6,23.9c0.3,0.4,0.7,0.9,1,1.3c-2.8,0-5.7-0.3-8.4,0.1
	c-1.3,0.2-2.6,1.5-3.6,2.6C1180.2,1282.4,1179.4,1284,1178.6,1285.4L1178.6,1285.4z"/>
<path class="st0" d="M646,277.4c1.4-0.9,2.6-1.7,3.9-2.6c-1.2-4.2-2.1-8,1.7-11.7c1.4-1.4,0.8-4.7,1.3-7.1c0.4-2.5,0.7-5,1.5-7.4
	c2.7-7.7,5.9-15.2,8.2-22.9c0.7-2.4-0.9-5.4-1.2-8.2c-0.2-1.6-0.7-4,0.1-4.6c1.7-1.3,4.1-1.7,6.2-2.3c0.7-0.2,1.6,0.2,2.4,0.3
	c7.3,0.7,9-0.9,8.6-8.6c1.6-0.5,3.2-0.9,4.9-1.4c1.1,1.5,2.3,2.9,3.3,4.4c2.4,3.5,4.5,4,8.4,1.2c3.2-2.3,7.8-3.6,11.7-3.3
	c3.8,0.3,7.4,3,10.9,4.9c4.2,2.3,8.4,4.6,12.3,7.3c5.9,4.2,12,7.9,18.5,10.8c3.5,1.5,7.1,2.6,10.6,4c3.1,1.2,6.1,2.4,9.2,3.7
	c7.5,3.3,13,1.7,19.4-3.6c5.6-4.6,6.7-11,9-17.1c4.2-0.7,7.6-1.1,7.5,5c0,1.6,1.7,3.6,3.1,4.9c8,7.3,3.2,17.6-3.7,22.2
	c-5.9,3.9-6.4,5.5-5.2,12.5c1.1,6.4-0.6,12.7-2.4,18.9c-0.5,1.7-0.9,3.5-0.8,5.2c0.8,7.5,1.3,15,2.9,22.3c1.2,5.6,2.4,11.6,7.7,15.2
	c1.4,1,3.5,1.3,5.3,1.3c5.1,0.1,6.8,2.1,5.9,7c-0.4,2.3-0.7,4.5-0.9,6.8c-0.4,4.3,2.2,5.7,8.9,4.3c-0.3,1.8-0.5,3.4-0.9,4.9
	c-2,7-3.6,14.2-6.4,20.9c-3.2,7.8-7.2,15.2-11.2,22.7c-1.6,3-3.8,5.9-6.3,8.4c-3,3-1.7,4.9,0.7,6.5c-1.4,2.8-2.7,5.2-3.7,7.8
	c-0.1,0.2,1.6,1.1,3.3,2.2c-3.5,3.7-6.8,7.3-10.5,11.2c-0.4-1.7-0.6-2.9-1.1-5c-3.9,2-7.4,3.7-10.9,5.5c-0.7,0.4-1.4,0.9-2.2,1.2
	c-4.1,1.5-8,3.8-12.2,4.2c-5,0.5-7.5,4.1-10.8,6.7c-3.1,2.5-6.2,4.9-9,7.6c-3,2.8-3.5,11.2-1,14.6c0.3,0.4,0.6,0.9,1,1
	c1.7,0.8,3.5,1.5,5.3,2.3c-1.4,2.9-2.7,5.8-4.3,8.6c-3.1,5.4-9,9-9.4,16.4c-0.1,2.3-1.5,6.8-6.3,6.3c-0.6-0.1-1.4,0.7-1.8,1.4
	c-2.4,3.6-0.7,10.9,3.4,12.7c3.7,1.6,4.1,4.3,4.4,7.5c0.2,1.8,0.4,3.6,1.1,5.3c2.9,7.4,5.9,14.8,9,22.2c0.6,1.4,1.9,2.7,3.1,3.8
	c2.2,2,4.5,3.9,7.1,6.2c-3.5,1.7-6.5,3.1-10.3,4.9c2.3,10.3,1.8,21.8,9.8,31.3c2,2.4,5.4,7.1,2.5,12c-0.6,1,0.1,3.8,1.1,4.8
	c9.6,8.8,19.3,17.6,32.5,20.9c3,0.7,6,1.4,9,1.9c0.8,0.1,2.1-0.4,2.4-1c0.4-0.9,0.2-2.2-0.2-3c-0.4-0.7-1.6-0.9-2.2-2.5
	c2.4,0.3,4.8,0.5,7.5,0.8c0.6-1.4,1.2-3,1.9-4.5c-4.6-3.7-9.1-7.5-13.7-11.2c1.4-1.9,2.2-3.7,3.2-3.9c1.7-0.4,5.2,0.1,5.3,0.6
	c0.9,5.5,5.5,2.6,8.6,5.5c-1.9-6.6,1.4-14.9,6.4-18.1c5.3-3.4,10.6-4,15.9,0.8c1.4,1.3,4.5,0.7,7.2,0.9c0-1.3,0-2.6,0-4.1
	c5.2,1.8,10.2,3.1,14.8,5.3c2.7,1.3,4.7,4,6.8,6.2c3.4,3.6,6.7,7.4,10.5,11.6c-1.3,2.9-0.7,5.9,2.8,9.3c1.8,1.7,3.6,6.2,0.1,10.1
	c-2,2.1-2.9,7-1.8,9.6c0.9,2.1,5.3,3.4,8.3,3.9c4.5,0.6,9.2,1,13.3-2.4c3.6-3,4.1-6,2.2-10c-0.8-1.7-0.7-3.8-0.9-5.7
	c0.4-0.1,0.8-0.2,1.3-0.4c-2.3-1.7-4.7-3.4-6.9-5c1.5-2.5,3-4.8,4.5-7.2c-0.1-0.1,0.7,0.9,1.2,0.8c1.5-0.3,3.9-1.7,4.1-1.5
	c2.1,3.3,3.8,6.8,5.7,10.2c0.7,1.2,1.4,2.3,2.2,3.5c1-1,2-1.9,3.2-3.2c5.8,8.2,12,1,18.3-1.7c0.1,0.7,0.3,1.3,0.4,2
	c-2.1,1.3-4.2,2.7-6.2,4c3.6,3.6,8.4,3.5,11.2-0.7c2.2,5.5,6.9,7.2,11.9,9c3.8,1.4,7.1,4.2,10.6,6.3c-0.2,0.5-0.3,1-0.5,1.5
	c-1.5,0.1-3.2,0.6-4.5,0.1c-3.2-1.2-5.1,0.1-7.3,2.2c-1,1-3.2,1.1-4.8,0.9c-5.5-0.8-11-2.7-16.5-2.8c-5.2-0.1-4.7,5.5-6.2,8.9
	c-0.7,1.7-0.6,3.8-0.6,5.7c0,0.7,0.4,1.7,1,2c4.1,2.6,8.3,5.1,12.4,7.8c0.9,0.6,1.7,1.7,2.1,2.7c2.8,6.6,5.1,13.5,13.8,16.1
	c0.7-2,1.5-4.4,2.5-7.1c7,0,9.9,11,18.6,6.4c-1.1,6.4-4.6,6.5-12.2,2c-4.2,0.8-6.9,1.3-9.6,1.8c-2.1,0.4-5.5,0.1-6,1.2
	c-1.1,2.2-0.6,5.2-0.7,7.9c0,1.3,0.2,2.7,0.3,4c0.1,1.3,0.2,2.6,0.3,3.9c1.6-0.2,3.8,0.2,4.7-0.7c2.2-2.2,3.9-4.9,6.3-8.2
	c6.5,4.4,12.9,8.6,20,13.4c2-1.7,1.8-9.7,9.5-4.5c-0.7,1.2-1.5,2.6-2.4,4.1c-0.9,1.5-1.7,3.1-2.7,4.6c-2.3,3.7-1.2,6.9,0.6,10.4
	c0.8,1.6,0.3,3.9,0,5.9c-0.3,3-0.7,6.1-1.5,9.1c-0.9,3.2-2.4,6.2-3.4,9.4c-0.5,1.6-0.4,3.3-0.7,5.1c-5.7,2.3-9.2,1-12.7-4
	c-2.5-3.6-6.6-6.4-8.4-10.3c-2.4-5.2-3.5-11.1,0-17.3c1.3,1,2.1,1.7,3,2.4c0.5,0.4,1,1.1,1.5,1.2c0.8,0.1,2.2-0.1,2.3-0.4
	c1.2-5.2,10.6-0.3,9.6-7.9c-0.2-1.4-0.5-3.9-1.1-4c-4.4-0.6-8.8-0.8-13.2-0.9c-0.4,0-0.8,1.2-1.1,1.9c-2.2,4-3.8,8.8-10.1,7.4
	c-0.7-0.1-1.6,1.3-2.6,2.1c-1.9-2-3.8-4-6.3-6.7c-0.9,1.1-2,2.4-3.7,4.5c-5.5-4.6-11.2-9.7-17.4-14.1c-1.9-1.3-5.3-0.8-8-0.7
	c-1.3,0.1-2.5,1.3-4,2.1c-3-4.8-4-9.5-1.3-14.2c2.2-4,0.2-6.3-2-9.3c-2.7-3.7-4.7-8-7-12c-1-1.8-1.6-4.3-3.2-5.2
	c-4.9-2.6-10.3-4.2-15.1-6.9c-5.2-2.9-10-6.5-14.6-10.3c-0.7-0.6,0.3-3.3,1.1-5.1c-2.2-7.4-11.5-13.9-18.3-12.9
	c-0.4-4.5-2-8.1-7.5-7.6c-1-2,0.4-7.9-4.9-2.9c-1.2,1.2-4.5,0.2-7.7,0.2c1.9,2.7,3.3,5.2,5.2,7.2c3.1,3.2,3.3,8.9,1.8,10.1
	c-5.1,4.1-0.9,7.3,0.3,10.1c1.1,2.6,4.2,4.4,6.4,6.5c1.1,1,2.2,2,2.5,2.2c0,2.2-0.5,3.9,0.1,4.5c5.1,5.3,6.7,11.7,6.4,18.8
	c-0.1,1.7,0.9,3.4,1.3,5.2c-1.5,1-2.8,2-4.2,2.7c-1.8,1-5,2.9-5.5,2.4c-2.4-2.6-5.9-5.9-5.8-8.9c0.3-6.7-1.9-11.6-6.2-16.2
	c-3.7-4-6.8-8.9-11-12.2c-2.6-2.1-6.8-2.1-10.1-3c-3-4.6-5.8-9.6-9.4-13.9c-1.5-1.8-5-2-7.4-3.3c-5.5-3-10.7-6.5-16.3-9.3
	c-2.4-1.2-5.5-0.8-8.6-1.2c0,0,0.3-0.7,0.4-1.4c0.1-1.3,0-2.7,0-4c-1.8,0.4-3.7,0.6-5.3,1.4c-1.7,0.8-2.9,2.6-4.7,3.4
	c-4.7,2.2-9.9,3.6-14.4,6.1c-5.7,3.2-6.1,6.3-3.2,14.5c-5.1,2.3-10.3,4.6-16.3,7.3c-4.6-5.3-11.8-2.3-18.7-2.3
	c0.6-2.8,1.7-5.2,1.3-7.3c-0.4-2.2-1.9-4.8-3.7-6.1c-2.4-1.7-4.8-1-6.4,2.3c-1,2.1-3,3.6-5.2,6.1c-0.2-1.7-0.5-2.7-0.3-2.8
	c5.4-3,3-7.8,3-12.1c0-0.8-0.3-1.6-0.7-2.3c-1.5-2.5-14.2-6.5-16.4-4.6c-1.5,1.3-1.7,4.1-2.7,6.7c-0.3,0-1.9,0.1-4,0.2
	c0.5,2.2,1,4,1.4,5.8c-0.5,0.2-1,0.3-1.5,0.5c-0.7-2.6-2-5.2-2-7.8c-0.1-5.8,0.8-11.6,0.7-17.3c-0.1-3.1-1.5-6.2-2.3-9.2
	c-1.8-6.9,0.3-8.4,6.7-11.6c6.4-3.3,11.6-9.1,17.4-13.7c0.9-0.7,2-1.6,3-1.8c7.2-1.3,9-4.6,6.1-11.6c-0.6-1.4-1.2-2.7-1.6-4.1
	c-2.3-8-6.2-11-14.3-12.5c-5.4-1-11.6,0.4-15.8-5c-0.9-1.1-3-1.2-4.5-1.7c-2.8,3.9-2.3,10-0.6,13.8c2.1,4.7,3.7,9.9,4,15
	c0.3,4.6-6.7,7.7-11.3,5.5c-7.1-3.3-7.2-3.3-6.3-11.1c0.4-3.2-0.2-5.2-3.8-6.3c-2.5-0.8-4.7-2.8-6.8-4.5c-0.6-0.4-0.9-2.3-0.6-2.5
	c1.6-1.3,1.8-2.3,1.1-4.4c-0.3-0.8,2-2.6,3.6-4.4c-4-1.1-4.5-7.2-8.9-5.7c-0.7,4.3-1.3,7.8-2,12.1c-3-1.7-5.2-2.9-7-3.9
	c0-1.3,0.4-2.6-0.1-3.4c-2.9-4.3-3.1-8.8-3.3-13.9c-0.2-7.2-2.3-14.2-3.2-21.4c-0.9-7.4-5.5-12.6-10.7-18.6c1.5-1.6,3.9-3.1,4.6-5.3
	c0.7-2.2,0.4-6.6-0.8-7.1c-3.8-1.7-2.1-3.8-1.4-6c1.5-5.1,1.6-5.1-2.9-7.4c2.3-7.8,1.4-15-3.8-22c-1,0.4-2.2,0.8-3.4,1.2
	c-1.2,0.5-2.4,0.9-3.5,1.4c-0.3-1.4-0.8-2.8-0.8-4.1c0-5.9,0-11.8,0.4-17.7c0.3-4.3,0.5-8.9,2.3-12.6c1.3-2.6,5.2-3.9,8-5.8
	c1.2-0.9,2.5-1.7,4.6-3.1c0.7,2,1.4,4,2.1,6.2c1,1,3.2,2.1,3.3,3.4c0.3,2.8-0.3,5.7-1.3,8.7c0.9,1.3,0.7,5.5,5.1,3.3
	c0.6-0.3,4.6,3.2,4.6,5.1c0.3,5.8,3.7,10.6,9.1,9c6.6-1.9,13.9-3.6,17.7-10.5c2.6-4.6,0.6-9.4-3-13.1c-2.3-2.4-2.8-6.9-3.3-10.5
	c-0.8-5.5-1-11-1.5-16.5c0-0.3-0.4-0.6-0.4-0.9c1.5-7.2,2.5-14.5,1.9-21.9c0-0.5,1-1.3,1.7-1.6c10.7-4.1,11.3-12.3,9.5-22
	c-1-5.4-0.9-11-0.8-16.5c0-1.9,1.6-3.8,2-5.8c1.2-6.1-1.8-10.8-5.7-14.8c-4.1-4.3-4.1-10,0.4-13.7C648.7,283,648.7,283,646,277.4z"
	/>
<path class="st0" d="M1074.7,945.7c0.2,2.7,0.5,5.4,0.7,8.1c0.1,1.3-0.1,2.6,0.3,3.8c0.6,2.1,1.5,5.7,2.4,5.7
	c4.7,0.1,4.4,3.4,4.5,6.2c0.1,2.5,0.2,5.7-1.1,7.3c-0.8,1-4.5-0.3-6.8-0.6c-1.2-0.2-2.4-0.7-4.5-1.3c0.2,3.5,0.3,6.3,0.5,9.7
	c-5.3-4.1-6.4-10.2-8.1-15.6c-1.2-3.6-2.6-5.6-7-5.2c0.4,5.7,0.3,11.5,1.2,17.2c0.9,5.6,2.8,11,4.3,16.5c-0.4,0.3-0.8,0.7-1.3,1
	c-1.5-0.7-3.1-1.2-4.3-2.2c-3.9-3.1-6.9-6.9-12.8-7.1c-6.5-0.3-8-3.6-4.6-11.6c2.3-5.4,1.6-9-2.8-12.6c-2.3-1.9-1.9-9.3-0.1-12.4
	c1.2-2.2,1.6-4.8,2.4-7.2c0.8-2.2,1.7-4.4,2.5-6.7c0.5-1.2,1.5-2.6,1.2-3.6c-1.7-6.1-2.8-12.5-8.1-17.2c-3.3-3-6.1-6.7-8.6-10.5
	c-2.7-4-5.5-4.8-9.1-1.7c0,2.2,0.5,4.6-0.1,6.6c-0.6,1.8-2.7,4.8-3.5,4.6c-2.2-0.5-4-2.5-6-3.8c-1.1-0.8-2.3-1.4-4.3-2.5
	c0.3-0.7,1-2.5,1.8-4.4c-3.4-2.3-3-5.8-2.4-9.3c0.4-2.4,0.6-4.9,0.6-7.3c0-3.3-0.1-6.6-0.6-9.8c-0.3-1.6-1.7-2.9-2.5-4.4
	c-0.6-1.1-1.1-2.3-1.4-3.4c-0.7-2.4-0.9-5-2.1-7.1c-2.7-4.8-3.2-10.2,0.1-13.4c4.7,5.7,9.3,11.4,14.3,17.5c0-2.2,0-4,0-6.1
	c2.6,0,4.4,0.7,5.4,4c3.2,11.3,12.6,13.7,21.8,5.5c2.2-1.9,3.7-4.6,6.3-8.1c3.8,0.6,8.9,1.4,14.2,2.3c1.6-4.4-4.5-8.3-12.9-6.9
	c-2.1-4.8-1.3-5.9,4.6-6.3c-0.3-1.8-0.5-3.5-0.9-6c4.3,3.9,4.3,3.9,10.9-1.9c-0.6-1.3-1.2-2.8-1.7-4.1c1.5-2,3-3.8,4.2-5.7
	c0.7-1.1,1.5-3.2,1.1-3.7c-0.9-1-2.7-1.5-4.2-1.8c-0.9-0.2-2.2-0.1-2.8,0.5c-4.8,4-7.2,1.5-9.7-2.8c-1.9-3.2-4.7-5.9-7.3-8.5
	c-2.8-2.8-6.6-5.2-8.1-8.6c-1.8-4.1-3.8-6.6-8.3-6.7c-6.1-0.1-10-3.2-14.1-7.7c-4.7-5.2-8-10.9-10.6-17.2c-1.9-4.6-3-9.6-4.5-14.4
	c-1-3.2-2.2-6.3-3.2-9.3c0.6-0.5,0.8-0.7,0.8-0.6c4.2,3.5,8.8,1.3,13.4,1.1c1.9-0.1,3.9,1.4,5.9,1.9c9.6,2.4,19.1,3.6,29,0.8
	c3.4-0.9,7.4,0.7,10-3.4c0.5-0.8,4.2,0.1,6.3,0.8c3.1,1.1,4.7,0.5,4.9-2.9c4.2,0.5,8.6,0.3,12.4,1.6c3.3,1.1,6.2,3.8,8.7,6.3
	c2.1,2.1,3.6,4.8,4.9,7.5c0.7,1.4,0.5,3.3,0.2,4.9c-0.8,3.5-1.9,6.4,3.4,7.6c4.5,1.1,8.8,3.5,13,5.7c1.7,0.9,2.7,2.9,3.8,4
	c-1.9,1.8-3.5,3.3-5.3,4.7c-2.3,1.9-2.5,3.1,0.6,4.6c2.5,1.2,4.2,3,1.6,6.4c-3.9,5-6.8,10.7-3.9,17.5c0.8,1.8,1.9,3.5,3,5.6
	c-1.4,0.6-2.8,1.2-4.7,2c5.5,2.9,5.4,3.9,3.3,9.7c-0.9,2.4-1.4,5.6,1,8.8c3.1,4.2,4.3,9.7,7.1,14.2c1.9,3,5.2,5,8.5,8.2
	c-1.6,1.5-3.5,3.3-5.2,5.2c-0.9,1-2,2-2.3,3.2c-0.6,2-0.6,4.2-0.9,6.3c2.4,0,5.2,0.8,7-0.2c2.8-1.7,4.1-1.1,5.5,1.3
	c2.1,3.6,4.4,7.2,6.5,10.9c0.6,1,0.9,2.2,1.4,3.3c-0.6,0.4-1.2,0.7-1.8,1.1c-2.5-3.8-5-7.5-8-11.9c-0.7,0.3-2.1,0.9-3.6,1.4
	c-1.1,0.3-2.4,0.6-3.3,0.2c-1.4-0.6-2.7-1.7-4-2.6c-0.9,1.5-1.8,3.1-2.7,4.6c-0.1-0.4-0.2-0.8-0.3-1.1c-2,0.4-4,0.9-6,1.1
	c-1.1,0.1-2.3,0.2-3.3-0.1c-3.4-1.1-6.6-3-10-3.2c-2.1-0.2-4.4,2.2-7.3,3.8c-1-3-2.6-6.9-3.4-10.9c-1-5-3.6-7.1-8.7-6.4
	c-3.3,0.5-6.7,0.6-9.4,0.8c0.9,6.1,1.2,11.6,2.7,16.7c2.4,7.7,1.6,14.6-1.6,21.9c-2.7,6.2,0.8,12.9,7.1,15.5
	c0.8,0.3,1.6,0.7,2.1,1.3c1.2,1.8,2.1,3.7,3.4,5.5c1.3,1.9,2.9,3.6,4.3,5.3C1075.4,945.3,1075,945.5,1074.7,945.7z"/>
<path class="st0" d="M916.7,912.9c1.5,3.5,3.3,7,4.7,10.7c0.4,1.2,0,2.9-0.5,4.2c-1.3,3.3-3.5,6.3-4.2,9.7
	c-1.7,7.9-4,14.8-11.2,20.1c-3.1,2.3-3.8,8-5,12.3c-1.1,3.7-1.3,7.7-2.3,11.4c-1.3,4.6-2.7,9.2-4.8,13.4c-2.8,5.7-6.8,10.8-9.2,16.6
	c-1.4,3.5-1,7.9-1.1,11.9c-0.1,3.1,0.5,6.2,0.5,9.3c0,0.9-1,1.8-1.4,2.8c-0.6,1.4-1.6,2.8-1.7,4.2c-0.1,2.1,0.4,4.2,0.5,5.3
	c2.2,2.7,4,4.9,5.8,7.1c3.4,4.1,6.9,8,10.2,12.2c1,1.3,1.9,3.3,1.6,4.8c-1.9,9.2-5.8,17.8-14.6,21.8c-5.2,2.3-11.7,5.1-17.6,0.6
	c-1.1-0.8-2.3-1.9-2.7-3.1c-1.9-5.8-3.9-11.6-5.1-17.5c-1.2-6.1-5.8-7.4-10.4-8c-8.9-1.1-16.2-4.8-21.2-12
	c-3.3-4.7-5.3-10.2-8.2-15.1c-0.7-1.3-2.6-1.9-3.8-2.9c-3.3-2.7-0.5-6.6-1.7-9.7c-2.7-6.9,5.1-10.6,5.2-16.8c0-0.6,3.7-1.5,5.7-1.6
	c3.6,0,7.3,0.7,10.9,0.7c3.9,0,7.4-1.1,9.9-4.6c1-1.4,3.1-2.4,4.9-2.8c7-1.6,8.2-4.2,7.1-11.5c-0.8-5.4,0.2-11,0.2-16.4
	c0-2.6,0.1-5.3-0.7-7.7c-1.3-3.8-3.3-7.4-5-11.1c12-4.9,14.1-15,15.4-25.6c0.1-0.6,0-1.3-0.2-2c-1.7-7.2,0.3-9.6,7.5-10.1
	c1.9-0.1,4-1.3,5.5-2.5c7.9-6.2,10.1-6.1,17.2-2.8C902.8,911.2,909.9,911.5,916.7,912.9z"/>
<path class="st0" d="M762.4,830.3c0.6-2,1.9-4.7,2-7.3c0-2.8,1.1-3.8,3.4-5.1c2.7-1.5,5.2-1.1,6.7,0.7c4.3,5.3,9.8,7.3,16.4,8.2
	c3.1,0.5,5.9,3.2,8.8,4.9c0.8,0.5,1.7,1.4,2.5,1.4c5.8,0.1,8.2,4.5,11.5,8.2c2.6,3,5.7,5.9,9.2,7.5c3.8,1.7,6.7,3.2,6.7,7.8
	c1.8,0,3.2,0,4.9,0c0.5-1.2,1.1-2.5,1.7-3.8c1,0.4,1.9,0.8,2.7,1.1c1.7-2.3,3.3-4.5,4.9-6.7c3.5,1.5,9.2-2.6,10.5,3.7
	c-0.3,1.7-0.6,3.1-1,4.8c2.6-0.4,4.5-0.6,6-0.8c-0.6,3.1-1.2,5.8-1.8,8.6c0.6,0.3,1.3,0.6,1.9,0.9c1.1-1.6,2.2-3.2,2.7-3.9
	c5.8-2.3,11.1-4.3,15.7-6.1c1.6,1.6,3,3,4.5,4.5c0.4,0.4,0.8,1,1.2,1.5c-4.1,3.1,1.5,9.2-4.2,12.7c-1.9,1.2-0.7,7.8-0.5,12
	c0,1.2,1.3,2.4,2.4,4.2c-4,0-7.1,0-10.3,0c-0.5,2.4-0.5,4.7-1.4,6.5c-0.6,1.2-2.4,2.4-3.9,2.6c-2.3,0.4-3.8,0.5-5.3,3.1
	c-1.3,2.1-5.2,2.8-8.1,3.7c-5,1.5-5.5,3-4.4,7.9c0.6,2.7-0.4,6.1-1.5,8.8c-1.1,2.8-2.9,4.6-7,3c-4.7-1.7-7.7,1-8.9,6.4
	c-0.8,3.6-4,4.1-6.5,4c-10.3-0.5-20.2,1.8-29.3,5.6c-4.7,1.9-10.9,3.6-13.3,10c-1.2,3.2-4.2,5.9-7,8.2c-1.2,1-3.7,0.6-5.7,0.8
	c-0.1-2.2-1.3-5.3-0.2-6.4c4.1-4.7,4.7-10.2,4.5-15.8c-0.1-2.4-1.6-4.7-2.4-7.1c-0.5-1.3-1.6-2.9-1.2-3.9c2.5-6.3,5.5-12.3,8-18.6
	c1.1-2.9,1.6-6.1,1.9-9.3c0.5-5,0.6-10.1,0.9-15.2c0-0.3,0.4-0.7,0.3-0.9c-3.1-5.2,1.3-10.3,0.3-15.6c-0.4-2,0-4.2,0.4-6.3
	c1.1-6.6,2.6-13.1,3.5-19.7c0.5-4.3-0.5-7.5-6.3-7.7C772.8,833,767.5,831.3,762.4,830.3z"/>
<path class="st0" d="M465.5,1034.5c-3.5,5.3-7.7,11.6-11.9,17.9c-2.5,3.7-4.6,7.8-7.5,11.2c-3.5,3.9-8.5,6.7-11.3,11
	c-4.3,6.5-11.3,5.8-17.2,7.9c-2.5,0.9-5.2,1-7.6,1.9c-1.1,0.4-2.3,1.5-2.8,2.5c-3.1,6.6-5.6,13.6-9.3,19.8c-1.7,2.9-5.9,4.2-8.8,6.4
	c-4.4,3.3-9,6.4-12.8,10.2c-2.6,2.6-6.6,3-8.5,4.8c-3.3,3.3-6.1,2.5-9.2,1.5c-4-1.4-6.5,1.6-5.8,3.8c1.6,5.1-2.4,7.4-3.4,10.7
	c-13.7-0.2-21.1,9.2-29.5,17.7c-0.3-0.7-0.9-1.3-0.8-1.7c2.6-7.4,5-14.9,8.2-22c2.1-4.7,5.1-9,8.3-13c1.3-1.7,4.2-2.1,6.6-3.2
	c3.2-7.3,8.1-13.9,14.8-19.2c1.9-1.5,3-4,4.4-6.1c1.7-2.6,3.1-5.5,7.3-4.2c4,1.3,6.2-0.7,6.3-4.7c0.1-4.5,2.2-7,6.4-8.2
	c1.1-0.3,2.3-0.9,3-1.8c3.3-4.3,7-5,11.6-2.3c0.6,0.4,2.3-0.6,3.2-1.3c2.8-2.4,5.5-5,8.1-7.6c0.8-0.8,1.3-2,1.8-3
	c0.4-0.9,0.6-2.6,1-2.6c5-0.2,4.6-4.6,6.5-7.4c2.7-3.8,7.9-6,10-10c2.6-4.9,7.1-7.5,10.2-11.5c0.9-1.1,2.3-1.8,3.4-2.8
	c3.1-2.9,6.6-5.6,9.1-9c3.9-5.1,6.9-10.8,10.6-16c2.8-3.8,6-7.3,9.3-11.2c0.2,2.4,0.4,4.8,0.6,7.6c5.6,0.1,2.4-6.5,5.5-7
	c-0.8-3.1-1.5-5.6-2.4-8.9c3.8-0.4,7-0.6,10.2-1.1c1-0.2,2.8-0.9,2.8-1.5c0.3-4.7,3.6-7.6,6.4-10.7c2.9-3.1,2.3-5.4-1.8-7.1
	c0.2-0.4,0.4-0.9,0.6-1.3c2.1,0.3,4.1,0.6,6.8,1c0.3-0.4,1.1-1.4,2.9-3.9c0.7,2.2,1.3,4,1.8,5.4c5.2-4.2,10.3-6.7,13-10.8
	c4.5-6.6,8.4-14.1,8.4-22.4c0-3.6-2.4-6.3-6.6-5.5c-1.1-2.8-2.1-5.4-3.4-8.8c0.3-0.3,1.3-1.3,2.4-2.3c3.5,8.6,12.4,10.6,17.4,17
	c0.3-0.3,0.6-0.7,1-1c-0.5-3.6-1-7.3-1.7-12.4c-1-0.3-3.2-1.3-5.6-1.8c-4.7-0.9-2.4-4-2.1-6.5c-5.3-1.8-5.6-3.2-2.6-8.4
	c0.8-1.4,0.1-3.7,0.1-5.8c0.8,1,1.3,2.2,2.1,2.8c1.3,0.8,2.9,1.8,4.3,1.7c0.7-0.1,1.8-2.4,1.7-3.6c-0.1-2.4-1-4.7-1.5-7
	c-0.2-1.1-0.6-2.3-0.4-3.4c0.6-3.6,1.3-7.2,2.1-10.8c0.3-1.4,0.7-3,1.6-4.1c1.6-2.3,3.6-4.3,5.6-6.6c0.2,2,0.5,4.8,0.9,7.8
	c5.5,0.1,5.9,3.2,4.4,7.3c-1.1,2.9-1.6,6.3-3.5,8.6c-2,2.5-2.2,4.8-0.2,6.6c1.4,1.2,3.9,1.2,6,1.5c0.9,0.1,1.8-0.3,2.8-0.5
	c0.9,2.4,1.8,4.5,2.6,6.7c-0.2,0.2-0.4,0.5-0.7,0.7c-0.9-0.6-1.8-1.2-2.6-1.9c-1.5-1.1-2.9-2.9-3.8,0.6c-0.1,0.4-1.5,0.7-2.1,0.6
	c-3.4-0.7-4.6,0.8-4.7,4c0,3-0.4,6-0.1,8.9c0.6,5.9,3,7.2,8.8,5.2c0,5.2,0,10.2,0,15.9c1.5-0.2,3.5-0.4,5.9-0.7
	c-2.5,6.8,2.3,10.6,5.9,14.3c-4.5,4.3-8.8,8.7-13.4,12.6c-1.3,1.2-3.7,2-5.4,1.7c-8.6-1.3-14.3,4.3-19.6,9.1
	c-3.5,3.2-6,8.6-6.8,13.3c-1.4,8.7-2,10.1-11.1,11.9c-7.2,1.4-14.5,2.6-21.6,4.3c-3.8,0.9-7.7,2.5-11,4.5c-4.2,2.6-2.5,6.9-1.7,10.7
	c0.6,2.8,0.9,5.7,1.4,8.6c-0.6,0.1-1.3,0.2-1.9,0.4c-0.3-0.9-0.4-2-0.9-2.6c-0.7-0.9-1.8-1.4-2.7-2.2c-0.7,1.1-2.1,2.5-1.8,3.3
	C462.1,1029.3,463.7,1031.5,465.5,1034.5z"/>
<path class="st0" d="M721,758.9c0.3,4.7-5.8,9-0.4,14.1c-1.7,0.1-3,0.2-4.5,0.4c0,2,0,3.8,0,5.7c-3.7-2.5-9.9,1.3-12.8,7.1
	c-4.9-0.4-9.4-0.8-14.6-1.3c0.6,2.8,1,5,1.4,7.1c-0.4-4.3-10.1-3.8-5.4-11c1.4,0.3,2.7,0.6,4.5,1c0.3-2.4,0.5-4.5,0.8-7.1
	c-7.8,1.3-8.9-6-12.6-9.6c-3.1-3.1-5.8-7.1-3.1-12.5c0.7-1.4-1.2-4.9-2.9-6.5c-3.2-3-3.1-10-10.6-8c-0.7-7.8-0.3-15.5-2.2-22.6
	c-3.1-11.6-7.8-22.5-21.3-26.5c-2.4-0.7-4.4-3.9-5.7-6.4c-1.2-2.4-1-5.4-1.8-8.1c-0.5-1.5-1.4-3.7-2.5-4c-1.4-0.4-3.8,0.5-4.7,1.7
	c-1.3,1.7-2,3.7-4.4,1.7c-2.1-1.8-4.8-3.5-3.2-7c1.8-3.9,7.6-6.4,11.9-5.6c6.7,1.3,13.5,2.2,20.3,3.2c1.1,0.2,2.5-0.1,3.4,0.5
	c6.7,3.8,12.8,1,19-1.3c2.8-1.1,5.1-1.9,7.5,2.1c4.1,6.7,10.9,8,18.4,6.1c1.4-0.4,3.6-0.3,4.5,0.6c4.9,4.6,9.6,9.5,14.3,14.3
	c0.6,0.6,1.1,1.3,1.7,1.7c5.5,3.5,5.5,3.5,5.5,9.8c1.7,0,3.6-0.4,5.2,0.1c1.9,0.5,3.6,1.8,5.3,2.7c-0.9,1.2-1.6,2.6-2.7,3.5
	c-2.7,2.3-3.9,4.7-3.5,8.6c0.6,5.1,0.1,10.3-0.5,15.5c-0.4,4-0.4,7.3,3.1,10.3C735.2,744.9,729.7,755.8,721,758.9z"/>
<path class="st0" d="M956.9,902.7c1.4-4.1,5.9-7.2,2.6-12.6c-0.1-0.1,0-0.3,0-0.5c-0.1-2.5,6.6-10,10.6-10.7c-2,5.4-3.7,10.2-5.5,15
	c-0.6,1.6-2.1,3.3-1.8,4.7c0.2,1,2.7,1.5,4.3,2.3c0,7.4,1.9,16-0.5,23.1c-3,9,1.1,16.8,0.3,25.2c-0.2,2.3-0.5,4.5-1,6.8
	c-0.4,1.9-1.9,3.9-1.6,5.6c1.1,5.5-2.8,6.9-6.3,9c-1.6,1-3.2,2.3-4.2,3.8c-3.5,5.6-11.3,4.5-14.8,10c-1.5,2.3-3.1,4.5-4.6,6.7
	c-0.5,0.8-0.8,2.2-1.4,2.3c-4.7,1-5.1,5.3-4.8,8.2c0.7,6.7-1.8,11.5-5.3,17.1c-3.9,6.2-5.3,13.8-8.3,20.7c-1.6,3.7-3.9,7-6.1,10.3
	c-1.4,2.2-2.9,4.4-4.7,6.3c-0.9,1-2.5,1.3-3.7,1.9c-0.5-1.2-1.5-2.4-1.3-3.5c1-7.8,2.3-15.6,3.3-23.5c0.8-6.1,3.3-11.4,5.6-16.9
	c0.9-2.1-1.1-5.4-1.6-7.3c1.1-2.4,2-4.2,2.9-6.1c0.3-0.7,0.6-1.5,1-2.2c4.6-6.3,9.4-12.5,14-18.8c0.6-0.8,1.2-2,1.1-2.9
	c-0.7-5.4,2.7-8.9,5.6-12.7c2.5-3.2,4.9-6.7,6.6-10.3c1.6-3.2,1.8-7.1,3.4-10.3c2.1-4.2,5-7.9,7.4-11.9c1.5-2.5,2.8-5.2,3.9-7.9
	c2-4.9,4-9.7,5.5-14.8C957.9,907,957.1,904.7,956.9,902.7z"/>
<path class="st0" d="M1000.8,991.5c1.9,3.7,7.6,6.3,13.8,4.9c0-1.3,0-2.6,0-4.4c1.3-0.4,2.8-1.2,4.1-1c1,0.1,1.8,1.5,3.4,2.9
	c-2.4-0.2-3.8-0.3-6-0.5c0.4,2.9,1,5.3,1.1,7.8c0.1,1.3-0.6,2.7-0.8,4c-0.2,1.3-0.6,2.6-0.3,3.8c1.3,5.1,1.4,5.1-3.2,8.2
	c1.4,0.8,2.6,1.4,3.7,2.2c1.6,1.3,4.8,1.6,3.7,4.8c-0.5,1.5-2,3.6-3.2,3.7c-1.9,0.2-4-1-7-2c-1.5,3-9,1.5-8.6,8.5
	c-5.1,1.8-10.2,3.9-15.4,5.4c-2.3,0.6-4.9,0.2-7.3,0.2c-6.5-0.2-13-0.5-19.5-0.9c-2.3-0.1-4.5-0.9-6.3-0.3
	c-3.3,2.4-6.5,4.9-10.4,7.8c-0.8-2.5-1.2-3.8-1.6-5.4c2.4-1.2,5-1.9,6.6-3.6c1.9-2.1,3.6-4.9,4.1-7.6c0.2-1-3.6-2.6-5.5-3.9
	c-0.6,0.1-1.3,0.2-1.9,0.4c1.2-3.2,1.5-7.1,3.7-9.4c4.8-5.2,10.5-9.4,17.9-10.6c1.4-0.2,3.2-2,3.7-3.4c2.4-7.2,8.1-12,13.1-17
	c4.5-4.6,7.1-3.3,12.6,2.4C996,989.7,997.9,990.1,1000.8,991.5z"/>
<path class="st0" d="M942.9,787.8c2.5-2.6,4.4-1,6.4,1.5c0.6,0.8,2.4,0.6,4.8,1.1c3,4.6,7,10.6,10.8,16.6c0.6,0.9,0,2.4,0.3,3.6
	c0.6,2.7,1,5.5,2.3,7.9c1.8,3.3,3.2,6.3,1.9,10.2c-0.5,1.5,0.4,3.5,0,5.9c-0.9-1.1-2-2.1-2.8-3.3c-5.8-8.4-13.6-13.5-23.7-15
	c-2.6-0.4-4.9-0.4-4.3-4.3c0.2-1.6-1.5-3.9-2.9-5.1c-3.8-3-7.4-5.7-9.2-10.6c-2.3-6.4-7.6-8.9-14.2-7.7c-0.9,0.2-2.1,0.5-2.7,1.1
	c-3.7,4.7-7.3,9.6-11,14.3c-2.3,2.9-4.9,5.6-7.6,8.3c-1.7,1.7-3.7,3.1-6.5,5.5c0.2-2,0.1-3.4,0.6-4.7c1.4-4.2,2.8-8.3,4.5-12.4
	c0.4-1.1,1.8-1.7,2.5-2.7c2.2-3.1,4.2-6.3,6.9-10.3c-3.5-0.6-5.9-1-8.3-1.5c1.8-4.8,3.9-9.7,5.2-14.8c0.5-2.1-0.6-4.7-1.1-7
	c-0.8-3.8-1.7-7.6-2.5-11.4c6.5-0.6,9.5,2.7,10.7,8.9c5.9-5.2,9.7-1.3,14.2,1.7c5.1,3.4,8.2,9.6,13.5,11.7
	C937,777.8,937.4,784.8,942.9,787.8z"/>
<path class="st0" d="M975.2,614c2.1-1.1,3.9-1.9,6.7-3.3c1.4,2,3.6,4.4,5,7.2c1.5,2.8,2.3,6,3.6,9.6c1.5-1.4,2.2-2.1,3.6-3.4
	c1.8,3.5,4,6.7,5,10.1c0.6,2.1-0.6,4.7-0.8,7.1c-0.2,2.4-0.3,4.7-0.4,8.1c-0.5,0.1-2.3,0.6-4.3,1.2c-0.1,2.1-0.3,4.2-0.4,5.8
	c-2.8-0.3-5.7-1.3-7.8-0.5c-2.1,0.8-3.5,3.6-5.8,6.1c-0.3-0.2-1.3-1.1-2.5-1.9c-2.5-1.7-5.2-3.2-7.6-5.1c-1.3-1-2.6-2.5-2.9-4
	c-0.2-1,1-2.5,1.9-3.6c1.9-2.5,5.2-4.6,5.7-7.3c1-6.1,0.7-12.5,0.9-18.7C975.3,618.8,975.2,616.2,975.2,614z"/>
<path class="st0" d="M814.9,1316c-1.6,0.8-2.8,2-4.1,2c-5.7,0.2-8.8,2.6-8.4,8.2c0.3,3.6-1.1,4.8-4.1,5.4c-1.5,0.3-3,0.6-4.3,1.3
	c-8.1,4.5-14.7,2.9-19.4-5.1c-2.4-4.1-1.6-10.3-8.5-10.9c0.3-1.4,0.1-3.1,0.9-4c0.9-1,2.9-1.9,4-1.6c5.9,1.7,6.8,1.3,8.8-4.6
	c0.3-1,1.7-2.3,2.6-2.3c4.6,0.1,11.1-0.7,13,2.7C800.2,1315,808.8,1310.4,814.9,1316z"/>
<path class="st0" d="M606.8,810.2c6.1,2.4,3.2,5.1-0.3,8.7c-0.6-2.8-1-4.9-1.5-7.7c-3.2-0.4-7.1-0.8-12.5-1.4
	c-0.5-0.1-2.5-0.8-4.5-1.1c-2.7-0.5-7.5-6.8-8.8-10.7c-1-3.3-3.4-6.2-4.3-9.5c-0.9-3.1-0.7-6.5-0.8-9.8c0-0.3,1.2-1.1,1.4-0.9
	c0.9,0.5,2.2,1.3,2.3,2.1c0.6,2.8,2.2,3.4,4.8,3.8c2.1,0.3,4.3,1.7,6,3.1c3.2,2.6,6,5.7,9,8.4c4.4,4,6.8,3.3,8.1-2.4
	c0.1-0.6,0.6-1.1,2.2-1.5c0.1,1.6,0.1,3.1,0.2,3.5c3.1,2.8,6.5,4.8,8,7.7c2.3,4.4,0.3,6.4-4.6,6c-1.6-0.1-3.2,0.2-4.8,0.3
	C607,809.3,606.9,809.7,606.8,810.2z"/>
<path class="st0" d="M770.1,660.7c4.4,0.6,8.6,1.3,12.7,1.9c2.4,1,3,4.4,7.4,4.7c3.1,0.2,3.3,9.9,0.2,12.3c-3,2.3-5.4,4.5-5.3,8.8
	c0,0.8-3.8,2.6-3.9,2.5c-4-4.9-11.8-5.5-14.3-11.8c-1.6-4.1-2.8-8.7,0-13.1C768.3,664,769.3,662,770.1,660.7z"/>
<path class="st0" d="M697,1384.8c-1.8-5.1-5.8-4.2-9.1-2.1c-3.8,2.4-6.6,0.2-7.9-2c-0.9-1.5,0.5-6,2.2-7c5.1-3.1,10.6-5.8,16.3-7.6
	c4.2-1.3,7.2,1.5,8.9,5.7c1.1,2.7,3,5,6.3,2.1c0.1-0.1,0.3-0.3,0.4-0.3c4.7,0.2,9.5-0.1,13.9,1c3.1,0.7,3.5,3.1-0.1,5
	c-3.6,1.8-7,4.1-11.3,6.7c-0.8-1.4-1.5-3.8-3.1-5c-1.5-1.2-4.2-2-5.9-1.5C704.1,1380.8,700.8,1382.9,697,1384.8z"/>
<path class="st0" d="M1124.1,1011c-1.4,5.4-5.1,7-9.4,6.7c-1-0.1-1.7-3.9-2.7-6.5c2.1-0.2,3.1-0.2,4-0.5c1.1-0.4,2.2-1,3.2-1.5
	c-0.6-0.9-1.1-1.9-1.7-2.7c-2.6-3.4-7.5-6.1-2.3-12.1c-3.6-0.3-6-0.5-8.7-0.7c-2.5-4.8-2-7.8,2.4-11.8c-0.4-1.6-0.9-3.1-1.1-4.7
	c-0.2-1.6,0-3.3,0.8-4.5c1.1-1.8,2.1-3.6,3.5-5.9c6.6,0.4,1.6-8.2,6.4-9.9c2.6,3.2,3.2,6.6,2.1,10.9c-2.2,8.8-2.3,17.6,1.7,26.3
	c1.2,2.5,0.2,6.6-1,9.4C1119.7,1007.2,1121,1009.2,1124.1,1011z"/>
<path class="st0" d="M608.6,1448.3c-1.6,2.5-2.6,4-3.8,5.8c-1.5-1-3-1.9-5.2-3.2c-1.7,2.1-3.3,4.5-5.2,6.5c-1.1,1.2-2.7,2.4-4.2,2.9
	c-4.3,1.2-8.8,1.7-13.1,3c-1.4,0.4-2.3,2.5-3.4,3.8c-0.4-0.2-0.9-0.3-1.3-0.5c0.8-2.2,0.9-5,2.4-6.3c2.7-2.4,6.2-3.9,9.4-5.7
	c0.7-0.4,1.6-0.6,2.3-1c7.7-4.8,15.4-9.6,23.1-14.5c1.2-0.8,2.5-1.9,3.8-2.2c1.3-0.3,2.9,0.2,4.3,0.3c-0.4,1.3-0.9,2.7-1.4,4.3
	c2.1,1.5,4.6,3.2,6.8,5c0.8,0.7,1.6,2,1.6,2.9c-0.1,0.7-1.7,1.9-2.4,1.8c-3.2-0.6-5.1,0.2-5.9,3.5c-0.1,0.2-2.8,0.4-3.4-0.2
	C611.4,1452.9,610.3,1450.8,608.6,1448.3z"/>
<path class="st0" d="M776.6,797.1c-2.1-1.7-3.3-2.3-3.7-3.2c-0.4-0.8-0.3-2.5,0.3-2.9c4.6-3.3,4.6-4.4-0.2-7c-1.8-1-3.2-2.7-5.1-4.3
	c2.1-3.3,1.1-7.5,5.7-10.6c4.2-2.8,2.8-8.9,1.7-13.8c-0.3-1.2-0.5-3.2,0.1-3.5c4.3-2.4,8.7-4.5,12.7-6.4c-0.5,2.5-0.9,4.4-1.2,6.3
	c-0.1,1.1,0.4,2.4,0.2,3.4c-1.1,4.9-2.2,9.9-3.5,14.8c-1.5,5.5-3.3,10.9-4.8,16.4C777.8,789.6,777.4,792.9,776.6,797.1z"/>
<path class="st0" d="M783.3,525c-5.5,0.9-1.9,4-1,6.6c-1.6,0.7-3.1,1.4-5.7,2.6c1.7,2.6,3,5.1,4.8,7.1c4.6,5.4,1.7,14.2-6.4,17.8
	c-1.2-2.3-4.8-4.4,0.1-6.9c0.5-0.3,0.7-2.2,0.3-3.1c-2.3-5.4-4.7-10.9-7.3-16.1c-0.6-1.2-2.4-1.8-4.2-3.2c1.1-2.1,2.2-6.6,4-6.9
	C772.9,522.1,778.8,517.4,783.3,525z"/>
<path class="st0" d="M828.4,957.4c-0.4,0.8-0.7,1.8-1.3,2.5c-0.6,0.7-1.5,1.5-2.2,1.4c-0.7-0.1-1.5-1.1-1.9-1.9
	c-0.9-1.7-1.5-3.5-2.4-5.6c1.5-1.1,3.5-2.7,5.5-4.2c-0.5-0.2-1.1-0.5-1.6-0.7c0.2-2-0.1-4.4,0.8-5.9c1.5-2.3,4-4,5.9-6
	c0.8-0.9,1-2.3,1.7-3.2c1.2-1.4,3.1-3.9,4-3.7c1.9,0.5,4.5,2.4,4.8,4.1c0.6,3.3,0.6,7-0.4,10.1c-1.5,4.4-3.8,8.5-6.5,12.3
	c-0.9,1.4-3.7,1.4-5.7,2.1C828.9,958.4,828.7,957.9,828.4,957.4z"/>
<path class="st0" d="M1015.2,859.2c-3.4-0.5-7,2.2-9.1-2.1c-1.4-2.9-2.9-5.7-4.3-8.6c-0.6-1.3-1.1-2.7-1.7-4
	c-2.1-4.5-1.6-5.5,3.2-6.5c5.1-1,11.1,2.2,13.3,7.1c1.1,2.4,2.2,4.8,3.8,6.8c2.4,3,1.6,6.4-2.2,7.2
	C1017.1,859.4,1015.9,859.2,1015.2,859.2z"/>
<path class="st0" d="M840.3,771.6c-1.6,8.4-5.3,11.5-10.5,7.1c-4.2-3.6-8.6-6.5-13.2-9.5c-2.7-1.7-1.2-6.6,2.7-7.2
	c5.3-0.8,11.1-0.4,16.2,1.1C837.8,763.9,838.8,768.7,840.3,771.6z"/>
<path class="st0" d="M1144.3,1011.7c3.2-2.2,6.5-3.6,8.5-6c2.1-2.4,2.9-5.9,4.9-10.1c2.1,7.5,3.9,13.8,5.7,20c-0.3,0-0.5,0-0.8,0
	c1.5,1.7,3,3.3,5.5,6c-4,1.1-6.9,2.2-9.9,2.6c-2.6,0.4-4.7-0.5-6.3-3.4C1150.1,1017.8,1147.3,1015.3,1144.3,1011.7z"/>
<path class="st0" d="M582,839.5c-3.4-9.3-6.6-18.1-9.8-27c5.3-1.8,7.4-0.8,8.7,5.1c1.3-0.2,3-0.9,3.9-0.4c1.9,1.1,4.4,2.6,5,4.5
	C592.7,831.3,589.6,837.6,582,839.5z"/>
<path class="st0" d="M895.3,729.4c-3.5-2.4-7.1-4.5-10.4-7.1c-2.4-1.9-4.1-4.6-6.4-6.4c-2.7-2.1-5.7-3.9-8.8-5.3
	c-4.7-2-6.5-6.7-3.8-10.9c1.5-2.3,6-1.8,8.4,1.5c3,4.1,5.5,8.5,8,12.8c2.2,3.9,3.7,7.9,9.6,7.6C896.6,721.4,895.1,725.9,895.3,729.4
	z"/>
<path class="st0" d="M299.1,1192.1c3.2-0.4,3.8-3.3,3.8-6.7c0-0.9,0.7-1.8,1.1-2.8c0.8,0.6,2.1,1,2.4,1.7c2.8,7.2,4,14.6,1.7,22.1
	c-0.6,2.1-3,3.6-4.7,5.4C299.8,1205.5,297.7,1199.5,299.1,1192.1z"/>
<path class="st0" d="M562.5,949.4c2.8-2.4,5.1-4.5,7.4-6.5c0.7-0.6,1.8-1.6,2.5-1.5c3.5,0.6,6.9,1.5,10.3,2.5
	c0.7,0.2,1.7,1.7,1.6,2.1c-0.5,1.4-1.3,3.1-2.5,3.9c-2.7,1.9-5.8,3.1-8.5,5c-5.9,4.1-7.8,3.4-9.4-3.2
	C563.5,950.6,562.5,949.6,562.5,949.4z"/>
<path class="st0" d="M925.8,749c0.8-2.4,1.4-4.3,2-5.9c13.5,6.1,13.7,19.4,17,31c-0.4,0.3-0.9,0.6-1.3,0.8
	C937.4,766.1,931.4,757.3,925.8,749z"/>
<path class="st0" d="M914.2,1078c8.6-0.9,11.4-1.1,13.1-8.2c4.3,1.1,4,4.9,4.9,8c0.6,2.1,1.2,4.2,2.1,7.7c-2.6,0.7-6.7,2.8-10.5,2.5
	C919.2,1087.5,914.1,1081,914.2,1078z"/>
<path class="st0" d="M1032.5,1071.7c4.8,0.2,11,9.4,9.6,13.1c-0.2,0.4-0.8,1.1-1,1.1c-3.7-1.1-7.6-1.7-10.8-3.6
	c-3.1-1.8-3.1-5.4-1.1-8.3C1030,1072.8,1031.8,1072.2,1032.5,1071.7z"/>
<path class="st0" d="M1000.7,938.1c5.1-6.8,5.1-6.8,12.9,0c-8,2.1-15.2,4-22.7,6c1-2.4,2-4.6,2.9-6.7c0.5-1.1,1-2.2,1.5-3.4
	c1.3,0.6,2.6,1.1,3.7,1.9C999.7,936.4,1000.1,937.3,1000.7,938.1z"/>
<path class="st0" d="M1070.1,987.3c12.8,2.1,11.3,14,17,22.7c-2.3-0.4-3.8-0.3-4.2-0.9c-1.9-3-3.5-6.2-5.3-9.2
	c-0.7-1.2-1.7-2.5-2.9-3.2C1070.7,994.8,1069.6,991.5,1070.1,987.3z"/>
<path class="st0" d="M741.8,134.8c0.2,2,0.3,4.4,0.7,6.8c0.4,3.3-2.1,4.1-4,3.3c-3.3-1.3-8.1-1.3-8.5-6.6c-0.1-0.7-1-1.2-1.6-1.9
	c1-1.2,1.9-2.3,2.8-3.3C734.6,133.6,738.1,134.1,741.8,134.8z"/>
<path class="st0" d="M593.8,627.7c6.5,3.8,14,4.4,16.8,12c-1.1,0.8-2.2,1.7-3.6,2.8C602.8,637.8,593.6,638.3,593.8,627.7z"/>
<path class="st0" d="M796,618.2c-7.6-6-15.2-12-23.9-18.8c2.3-0.9,3.6-1.8,4-1.5c6.9,5.5,13.8,11.1,20.6,16.8
	c0.5,0.4,0.5,1.4,0.8,2.1C797,617.3,796.5,617.7,796,618.2z"/>
<path class="st0" d="M781.5,172.7c-3.9,4.3-7.4,8.1-11.1,12.1c-0.5-1-1.1-2.2-1.7-3.4c0.5,0.1,1,0.1,1.5,0.2c0.6-3.3,0.7-6.8,1.8-10
	c1-2.9,3.7-3.6,6.5-2C779.7,170.3,780.6,171.7,781.5,172.7z"/>
<path class="st0" d="M318.6,1166.1c4-0.8,8.1-1.8,12.1-2.1c1-0.1,2.6,2.3,3.2,3.8c0.5,1.2,0.1,3-0.5,4.2c-0.7,1.3-2.2,2.2-3.3,3.3
	c-0.9-1.2-2.3-2.4-2.7-3.8c-0.5-1.6-0.1-3.5-0.1-5.7c-3,0.9-5.5,1.8-8.1,2.6C319,1167.7,318.8,1166.9,318.6,1166.1z"/>
<path class="st0" d="M1147.8,1041.2c-3.9-0.9-4.8-2.6-3.3-6.6c1-2.8,0.2-6.2,0.2-9.4C1153.2,1029.1,1149.7,1035.2,1147.8,1041.2z"/>
<path class="st0" d="M939.1,877c2,4.9,3.7,9.1,5.9,14.4c-2.7-1.2-5.7-1.7-7.4-3.5C934.2,884.4,936.3,880.8,939.1,877z"/>
<path class="st0" d="M720.8,180.4c12.3-2.3,12.3-2.3,15.7-0.6C733.5,182.6,723.4,183.2,720.8,180.4z"/>
<path class="st0" d="M1125.6,923c-1.7,6.6,1.3,8.1,6.4,7.6c0.8-0.1,1.7,0.7,2.4,1.3c0.2,0.2-0.1,1.6-0.3,1.7
	c-1.6,0.3-3.5,1.1-4.7,0.5c-2.6-1.3-5.1-2.9-7.1-5C1119.7,926.2,1121.5,924.5,1125.6,923z"/>
<path class="st0" d="M573.2,856.8c-0.9,3-1.7,5.7-2.4,8c-3.9-0.8-7-1.5-10.1-2.2c0-0.4-0.1-0.9-0.1-1.3c2.3-0.5,4.7-0.7,6.9-1.5
	C569.3,859.2,571,858,573.2,856.8z"/>
<path class="st0" d="M546.5,1499.4c-0.5-7.1-1-13.8-1.4-20.6C548.8,1485.3,550.9,1492,546.5,1499.4z"/>
<path class="st0" d="M802.2,762.6c-2.9-4.3-4.8-7.9-0.5-12.4C801.4,754.5,808.5,757.4,802.2,762.6z"/>
<path class="st0" d="M796.7,540.5c3,2.9,5.4,5.2,7.8,7.5c-0.3,0.3-0.5,0.6-0.8,1c-4.3-2.3-8.5-4.6-14.1-7.7
	C793.3,540.9,795.4,540.6,796.7,540.5z"/>
<path class="st0" d="M765.6,16.5c1.6-3.7,3.2-7.3,4.9-11.2c3.1,3.6,1.7,8.1-3.1,11.9C766.8,17,766.2,16.8,765.6,16.5z"/>
<path class="st0" d="M651.3,1338.8c-0.4,3.3-0.5,6.7-1.2,9.9c-0.3,1-2.3,1.7-3.5,2.5c-0.3-0.4-0.7-0.8-1-1.3
	c1.4-3.8,2.8-7.7,4.2-11.5C650.3,1338.6,650.8,1338.7,651.3,1338.8z"/>
<path class="st0" d="M676.5,1413.8c5.2,4.4,5.2,4.7,1.1,8.2C672.5,1418.6,672.3,1417.5,676.5,1413.8z"/>
<path class="st0" d="M773.5,119.4c3-1.1,5-1.9,8.6-3.2c-0.3,3.2-0.6,5.6-0.9,8c-0.5,0.1-1.1,0.2-1.6,0.3
	C777.8,123,776,121.5,773.5,119.4z"/>
<path class="st0" d="M718.7,167.4c-5.5-4-6.6-7.8-2.9-13.2C716.8,158.7,717.7,162.5,718.7,167.4z"/>
<path class="st0" d="M972.6,693.3c6.4-3.6,8.6-3.1,11.5,2C980,694.6,976.3,694,972.6,693.3z"/>
<path class="st0" d="M1178.5,1285.5c1.4,1.7,3.2,3.2,4.2,5.1c0.8,1.6,0.9,3.6,1.1,5.4c0,0.1-1.9,0.8-2,0.6c-0.9-1.4-1.8-2.8-2.2-4.4
	C1179.1,1290,1178.9,1287.7,1178.5,1285.5C1178.6,1285.4,1178.5,1285.5,1178.5,1285.5z"/>
<path class="st0" d="M1035.9,833.8c1.4,4.9,2.2,8,3.1,11.2c-0.4,0.3-0.9,0.5-1.3,0.8c-1.6-2.4-3.5-4.6-4.7-7.1
	C1032.7,837.8,1034.4,836.1,1035.9,833.8z"/>
<path class="st0" d="M819.4,553.9c-3.1,0.5-6.2,0.9-9.4,1.4c-0.2-0.6-0.4-1.1-0.6-1.7c2.2-1,4.4-2.3,6.8-2.9c1-0.2,2.4,1.2,3.6,1.9
	C819.6,553,819.5,553.5,819.4,553.9z"/>
<path class="st0" d="M444.8,1284.2c-0.7,3-1.1,4.8-1.7,7.4c-2.3-1.3-4.3-2.4-6.3-3.5C439.1,1286.9,441.5,1285.8,444.8,1284.2z"/>
<path class="st0" d="M965.6,973.8c-2,1.5-4,3-6,4.6c-0.4-0.2-0.8-0.4-1.1-0.6c0.6-1.8,0.7-4.1,1.9-5.3c0.9-0.8,3.2-0.2,4.9-0.2
	C965.3,972.8,965.4,973.3,965.6,973.8z"/>
<path class="st0" d="M1100.1,1426.2c-1.6,0.2-3.2,0.4-6.4,0.7c1.5-2.3,2.5-3.7,3.4-5.1c1.3,1,2.7,2,4,3
	C1100.8,1425.2,1100.4,1425.7,1100.1,1426.2z"/>
<path class="st0" d="M706,1388.5c1.1,1.3,2.3,2.5,3.4,3.8c-1.2,0.6-2.5,1.3-3.7,1.9c-0.6-1.5-1.3-2.9-1.9-4.4
	C704.5,1389.4,705.2,1389,706,1388.5z"/>
<path class="st0" d="M687.7,918.4c-1.3,1.7-2.5,3.3-3.8,5c-0.7-1-1.5-1.9-2.2-2.9c1.6-1.2,3.1-2.4,4.7-3.5
	C686.8,917.5,687.3,918,687.7,918.4z"/>
</svg>
